<?xml version="1.0" encoding="utf-8"?>
<!-- Generator: Adobe Illustrator 25.2.1, SVG Export Plug-In . SVG Version: 6.00 Build 0)  -->
<svg version="1.1" id="Calque_1" xmlns="http://www.w3.org/2000/svg" xmlns:xlink="http://www.w3.org/1999/xlink" x="0px" y="0px"
	 viewBox="0 0 254.5 252.3" style="enable-background:new 0 0 254.5 252.3;" xml:space="preserve">
<style type="text/css">
	.st0{fill:#74B64A;}
	.st1{fill:#E44044;}
	.st2{fill:#E6E6E6;}
	.st3{fill:#FFBC00;}
	.st4{fill:#323433;}
	.st5{fill:#FDFDFD;}
</style>
<g>
	<rect x="31.8" y="236.4" class="st0" width="15.9" height="15.9"/>
	<rect x="47.7" y="236.4" class="st0" width="15.9" height="15.9"/>
	<rect x="63.6" y="236.4" class="st0" width="15.9" height="15.9"/>
	<rect x="79.5" y="236.4" class="st0" width="15.9" height="15.9"/>
	<rect x="95.4" y="236.4" class="st1" width="15.9" height="15.9"/>
	<rect x="111.3" y="236.4" class="st1" width="15.9" height="15.9"/>
	<rect x="127.3" y="236.4" class="st1" width="15.9" height="15.9"/>
	<rect x="143.2" y="236.4" class="st1" width="15.9" height="15.9"/>
	<rect x="159.1" y="236.4" class="st1" width="15.9" height="15.9"/>
	<rect x="175" y="236.4" class="st2" width="15.9" height="15.9"/>
	<rect x="190.9" y="236.4" class="st2" width="15.9" height="15.9"/>
	<rect x="206.8" y="236.4" class="st1" width="15.9" height="15.9"/>
	<rect x="222.7" y="236.4" class="st1" width="15.9" height="15.9"/>
	<rect x="238.6" y="236.4" class="st1" width="15.9" height="15.9"/>
	<rect x="15.9" y="220.7" class="st0" width="15.9" height="15.9"/>
	<rect x="31.8" y="220.7" class="st0" width="15.9" height="15.9"/>
	<rect x="47.7" y="220.7" class="st0" width="15.9" height="15.9"/>
	<rect x="63.6" y="220.7" class="st0" width="15.9" height="15.9"/>
	<rect x="79.5" y="220.7" class="st0" width="15.9" height="15.9"/>
	<rect x="95.4" y="220.7" class="st0" width="15.9" height="15.9"/>
	<rect x="111.3" y="220.7" class="st1" width="15.9" height="15.9"/>
	<rect x="127.3" y="220.7" class="st1" width="15.9" height="15.9"/>
	<rect x="143.2" y="220.7" class="st1" width="15.9" height="15.9"/>
	<rect x="159.1" y="220.7" class="st2" width="15.9" height="15.9"/>
	<rect x="175" y="220.7" class="st2" width="15.9" height="15.9"/>
	<rect x="190.9" y="220.7" class="st2" width="15.9" height="15.9"/>
	<rect x="206.8" y="220.7" class="st2" width="15.9" height="15.9"/>
	<rect y="204.9" class="st0" width="15.9" height="15.9"/>
	<rect x="15.9" y="204.9" class="st3" width="15.9" height="15.9"/>
	<rect x="31.8" y="204.9" class="st3" width="15.9" height="15.9"/>
	<rect x="47.7" y="204.9" class="st0" width="15.9" height="15.9"/>
	<rect x="63.6" y="204.9" class="st1" width="15.9" height="15.9"/>
	<rect x="79.5" y="204.9" class="st1" width="15.9" height="15.9"/>
	<rect x="95.4" y="204.9" class="st0" width="15.9" height="15.9"/>
	<rect x="111.3" y="204.9" class="st0" width="15.9" height="15.9"/>
	<rect x="127.3" y="204.9" class="st2" width="15.9" height="15.9"/>
	<rect x="143.2" y="204.9" class="st2" width="15.9" height="15.9"/>
	<rect x="159.1" y="204.9" class="st2" width="15.9" height="15.9"/>
	<rect x="175" y="204.9" class="st2" width="15.9" height="15.9"/>
	<rect x="190.9" y="204.9" class="st2" width="15.9" height="15.9"/>
	<rect x="206.8" y="204.9" class="st2" width="15.9" height="15.9"/>
	<rect y="189.1" class="st0" width="15.9" height="15.9"/>
	<rect x="47.7" y="189.1" class="st0" width="15.9" height="15.9"/>
	<rect x="63.6" y="189.1" class="st1" width="15.9" height="15.9"/>
	<rect x="79.5" y="189.1" class="st1" width="15.9" height="15.9"/>
	<rect x="95.4" y="189.1" class="st1" width="15.9" height="15.9"/>
	<rect x="111.3" y="189.1" class="st0" width="15.9" height="15.9"/>
	<rect x="127.3" y="189.1" class="st0" width="15.9" height="15.9"/>
	<rect x="143.2" y="189.1" class="st2" width="15.9" height="15.9"/>
	<rect x="159.1" y="189.1" class="st2" width="15.9" height="15.9"/>
	<rect x="175" y="189.1" class="st2" width="15.9" height="15.9"/>
	<rect x="190.9" y="189.1" class="st2" width="15.9" height="15.9"/>
	<rect x="47.7" y="173.4" class="st0" width="15.9" height="15.9"/>
	<rect x="63.6" y="173.4" class="st1" width="15.9" height="15.9"/>
	<rect x="79.5" y="173.4" class="st1" width="15.9" height="15.9"/>
	<rect x="95.4" y="173.4" class="st1" width="15.9" height="15.9"/>
	<rect x="111.3" y="173.4" class="st0" width="15.9" height="15.9"/>
	<rect x="127.3" y="173.4" class="st0" width="15.9" height="15.9"/>
	<rect x="143.2" y="173.4" class="st0" width="15.9" height="15.9"/>
	<rect x="159.1" y="173.4" class="st0" width="15.9" height="15.9"/>
	<rect x="175" y="173.4" class="st0" width="15.9" height="15.9"/>
	<rect x="190.9" y="173.4" class="st0" width="15.9" height="15.9"/>
	<rect x="206.8" y="173.4" class="st0" width="15.9" height="15.9"/>
	<rect x="63.6" y="157.6" class="st0" width="15.9" height="15.9"/>
	<rect x="79.5" y="157.6" class="st1" width="15.9" height="15.9"/>
	<rect x="95.4" y="157.6" class="st0" width="15.9" height="15.9"/>
	<rect x="111.3" y="157.6" class="st4" width="15.9" height="15.9"/>
	<rect x="127.3" y="157.6" class="st4" width="15.9" height="15.9"/>
	<rect x="143.2" y="157.6" class="st4" width="15.9" height="15.9"/>
	<rect x="159.1" y="157.6" class="st4" width="15.9" height="15.9"/>
	<rect x="175" y="157.6" class="st5" width="15.9" height="15.9"/>
	<rect x="190.9" y="157.6" class="st4" width="15.9" height="15.9"/>
	<rect x="206.8" y="157.6" class="st4" width="15.9" height="15.9"/>
	<rect x="47.7" y="141.8" class="st3" width="15.9" height="15.9"/>
	<rect x="63.6" y="141.8" class="st0" width="15.9" height="15.9"/>
	<rect x="79.5" y="141.8" class="st0" width="15.9" height="15.9"/>
	<rect x="95.4" y="141.8" class="st4" width="15.9" height="15.9"/>
	<rect x="111.3" y="141.8" class="st3" width="15.9" height="15.9"/>
	<rect x="127.3" y="141.8" class="st0" width="15.9" height="15.9"/>
	<rect x="143.2" y="141.8" class="st5" width="15.9" height="15.9"/>
	<rect x="159.1" y="141.8" class="st5" width="15.9" height="15.9"/>
	<rect x="175" y="141.8" class="st0" width="15.9" height="15.9"/>
	<rect x="190.9" y="141.8" class="st5" width="15.9" height="15.9"/>
	<rect x="206.8" y="141.8" class="st0" width="15.9" height="15.9"/>
	<rect x="222.7" y="141.8" class="st0" width="15.9" height="15.9"/>
	<rect x="31.8" y="126.1" class="st3" width="15.9" height="15.9"/>
	<rect x="47.7" y="126.1" class="st3" width="15.9" height="15.9"/>
	<rect x="63.6" y="126.1" class="st0" width="15.9" height="15.9"/>
	<rect x="79.5" y="126.1" class="st3" width="15.9" height="15.9"/>
	<rect x="95.4" y="126.1" class="st3" width="15.9" height="15.9"/>
	<rect x="111.3" y="126.1" class="st3" width="15.9" height="15.9"/>
	<rect x="127.3" y="126.1" class="st5" width="15.9" height="15.9"/>
	<rect x="143.2" y="126.1" class="st5" width="15.9" height="15.9"/>
	<rect x="159.1" y="126.1" class="st4" width="15.9" height="15.9"/>
	<rect x="175" y="126.1" class="st0" width="15.9" height="15.9"/>
	<rect x="190.9" y="126.1" class="st4" width="15.9" height="15.9"/>
	<rect x="206.8" y="126.1" class="st5" width="15.9" height="15.9"/>
	<rect x="222.7" y="126.1" class="st3" width="15.9" height="15.9"/>
	<rect x="63.6" y="110.3" class="st0" width="15.9" height="15.9"/>
	<rect x="79.5" y="110.3" class="st0" width="15.9" height="15.9"/>
	<rect x="95.4" y="110.3" class="st3" width="15.9" height="15.9"/>
	<rect x="111.3" y="110.3" class="st3" width="15.9" height="15.9"/>
	<rect x="127.3" y="110.3" class="st5" width="15.9" height="15.9"/>
	<rect x="143.2" y="110.3" class="st5" width="15.9" height="15.9"/>
	<rect x="159.1" y="110.3" class="st4" width="15.9" height="15.9"/>
	<rect x="175" y="110.3" class="st0" width="15.9" height="15.9"/>
	<rect x="190.9" y="110.3" class="st4" width="15.9" height="15.9"/>
	<rect x="206.8" y="110.3" class="st5" width="15.9" height="15.9"/>
	<rect x="222.7" y="110.3" class="st0" width="15.9" height="15.9"/>
	<rect x="47.7" y="94.6" class="st3" width="15.9" height="15.9"/>
	<rect x="63.6" y="94.6" class="st0" width="15.9" height="15.9"/>
	<rect x="79.5" y="94.6" class="st0" width="15.9" height="15.9"/>
	<rect x="95.4" y="94.6" class="st0" width="15.9" height="15.9"/>
	<rect x="111.3" y="94.6" class="st0" width="15.9" height="15.9"/>
	<rect x="127.3" y="94.6" class="st5" width="15.9" height="15.9"/>
	<rect x="143.2" y="94.6" class="st5" width="15.9" height="15.9"/>
	<rect x="159.1" y="94.6" class="st4" width="15.9" height="15.9"/>
	<rect x="175" y="94.6" class="st0" width="15.9" height="15.9"/>
	<rect x="190.9" y="94.6" class="st4" width="15.9" height="15.9"/>
	<rect x="206.8" y="94.6" class="st5" width="15.9" height="15.9"/>
	<rect x="31.8" y="78.8" class="st3" width="15.9" height="15.9"/>
	<rect x="47.7" y="78.8" class="st3" width="15.9" height="15.9"/>
	<rect x="63.6" y="78.8" class="st3" width="15.9" height="15.9"/>
	<rect x="79.5" y="78.8" class="st0" width="15.9" height="15.9"/>
	<rect x="95.4" y="78.8" class="st0" width="15.9" height="15.9"/>
	<rect x="111.3" y="78.8" class="st0" width="15.9" height="15.9"/>
	<rect x="127.3" y="78.8" class="st5" width="15.9" height="15.9"/>
	<rect x="143.2" y="78.8" class="st5" width="15.9" height="15.9"/>
	<rect x="159.1" y="78.8" class="st4" width="15.9" height="15.9"/>
	<rect x="175" y="78.8" class="st0" width="15.9" height="15.9"/>
	<rect x="190.9" y="78.8" class="st4" width="15.9" height="15.9"/>
	<rect x="206.8" y="78.8" class="st5" width="15.9" height="15.9"/>
	<rect x="79.5" y="63" class="st0" width="15.9" height="15.9"/>
	<rect x="95.4" y="63" class="st0" width="15.9" height="15.9"/>
	<rect x="111.3" y="63" class="st0" width="15.9" height="15.9"/>
	<rect x="127.3" y="63" class="st0" width="15.9" height="15.9"/>
	<rect x="143.2" y="63" class="st5" width="15.9" height="15.9"/>
	<rect x="159.1" y="63" class="st5" width="15.9" height="15.9"/>
	<rect x="175" y="63" class="st0" width="15.9" height="15.9"/>
	<rect x="190.9" y="63" class="st5" width="15.9" height="15.9"/>
	<rect x="206.8" y="63" class="st0" width="15.9" height="15.9"/>
	<rect x="63.6" y="47.3" class="st3" width="15.9" height="15.9"/>
	<rect x="79.5" y="47.3" class="st3" width="15.9" height="15.9"/>
	<rect x="95.4" y="47.3" class="st0" width="15.9" height="15.9"/>
	<rect x="111.3" y="47.3" class="st0" width="15.9" height="15.9"/>
	<rect x="127.3" y="47.3" class="st0" width="15.9" height="15.9"/>
	<rect x="143.2" y="47.3" class="st0" width="15.9" height="15.9"/>
	<rect x="159.1" y="47.3" class="st0" width="15.9" height="15.9"/>
	<rect x="175" y="47.3" class="st0" width="15.9" height="15.9"/>
	<rect x="190.9" y="47.3" class="st0" width="15.9" height="15.9"/>
	<rect x="47.7" y="31.5" class="st3" width="15.9" height="15.9"/>
	<rect x="63.6" y="31.5" class="st3" width="15.9" height="15.9"/>
	<rect x="79.5" y="31.5" class="st3" width="15.9" height="15.9"/>
	<rect x="95.4" y="31.5" class="st3" width="15.9" height="15.9"/>
	<rect x="111.3" y="31.5" class="st0" width="15.9" height="15.9"/>
	<rect x="127.3" y="31.5" class="st0" width="15.9" height="15.9"/>
	<rect x="143.2" y="31.5" class="st0" width="15.9" height="15.9"/>
	<rect x="159.1" y="31.5" class="st0" width="15.9" height="15.9"/>
	<rect x="175" y="31.5" class="st0" width="15.9" height="15.9"/>
	<rect x="111.3" y="15.8" class="st3" width="15.9" height="15.9"/>
	<rect x="127.3" y="15.8" class="st3" width="15.9" height="15.9"/>
	<rect x="143.2" y="15.8" class="st3" width="15.9" height="15.9"/>
	<rect x="127.3" class="st3" width="15.9" height="15.9"/>
</g>
</svg>
