<?xml version="1.0" encoding="utf-8"?>
<!-- Generator: Adobe Illustrator 25.2.1, SVG Export Plug-In . SVG Version: 6.00 Build 0)  -->
<svg version="1.1" id="Calque_1" xmlns="http://www.w3.org/2000/svg" xmlns:xlink="http://www.w3.org/1999/xlink" x="0px" y="0px"
	 viewBox="0 0 40.9 77.2" style="enable-background:new 0 0 40.9 77.2;" xml:space="preserve">
<g>
	<path d="M21.4,34.4l-2-6.9l-13.7,4l2,6.9C11.6,35.6,16.4,34.2,21.4,34.4z"/>
	<path d="M14.8,37.1C3.9,40.2-2.3,51.5,0.8,62.4s14.4,17.1,25.3,14c10.9-3.1,17.1-14.4,14-25.3C37,40.3,25.7,33.9,14.8,37.1z
		 M5.8,62.2c0.5,1.8,1.2,3.5,2.2,5c-2.4-1.7-4.2-4.2-4.9-6.9c-1.4-4.9,0.4-10.5,5-13.8C5.2,51.1,4.3,56.7,5.8,62.2z"/>
	<path d="M17.1,19.7c-3.3,2.1-5.2,4.1-5.3,8l2.5-0.7c0.6-5.3,8.3-5.6,9.8-11.5l-1.4-1.6l-1,1C21.1,17,19,18.2,17.1,19.7z"/>
	<polygon points="29.1,3.8 24.2,5 24.6,0 21.9,4.3 18.5,0.5 19.8,5.4 14.7,5 19,7.6 15.2,11 20.1,9.8 19.8,14.8 22.4,10.5 
		25.8,14.4 24.6,9.5 29.6,9.8 25.3,7.2 	"/>
</g>
</svg>
