<?xml version="1.0" encoding="utf-8"?>
<!-- Generator: Adobe Illustrator 25.2.1, SVG Export Plug-In . SVG Version: 6.00 Build 0)  -->
<svg version="1.1" id="Calque_1" xmlns="http://www.w3.org/2000/svg" xmlns:xlink="http://www.w3.org/1999/xlink" x="0px" y="0px"
	 viewBox="0 0 29.8 94.1" style="enable-background:new 0 0 29.8 94.1;" xml:space="preserve">
<circle cx="23.4" cy="33.1" r="1.4"/>
<circle cx="23.4" cy="8.2" r="1.4"/>
<path d="M1,94.1l21.3,0c3.1,0,5.2-0.7,6.5-2.1c1.1-1.2,1-2.5,1-2.6l0-50.7l0-33.8c0-2.2-1.1-4.9-6.5-4.9c-5.4,0-6.6,2.7-6.6,4.9
	v32.8L1,37.7c-0.5,0-1,0.4-1,1l0,54.4C0,93.6,0.4,94.1,1,94.1z M27.8,89.5c0,0,0,0.6-0.6,1.2c-0.6,0.6-2,1.4-5,1.4H5.9l0-52.4h21.9
	L27.8,89.5z M18.7,37.7l0-32.8c0-1.4,0.5-2.9,4.6-2.9c4,0,4.6,1.5,4.6,2.9l0,32.8L18.7,37.7z M2,39.7l2,0l0,52.4H2V39.7z"/>
<path d="M23.6,83.5c-1.8,0-3.3,1.5-3.3,3.3c0,1.8,1.5,3.3,3.3,3.3c1.8,0,3.3-1.5,3.3-3.3C26.9,85,25.4,83.5,23.6,83.5z M24.9,86.8
	c0,0.7-0.6,1.3-1.3,1.3c-0.7,0-1.3-0.6-1.3-1.3c0-0.7,0.6-1.3,1.3-1.3C24.3,85.5,24.9,86.1,24.9,86.8z"/>
</svg>
