<?xml version="1.0" encoding="utf-8"?>
<!-- Generator: Adobe Illustrator 25.2.1, SVG Export Plug-In . SVG Version: 6.00 Build 0)  -->
<svg version="1.1"
	 id="Calque_1" xmlns:cc="http://creativecommons.org/ns#" xmlns:dc="http://purl.org/dc/elements/1.1/" xmlns:inkscape="http://www.inkscape.org/namespaces/inkscape" xmlns:rdf="http://www.w3.org/1999/02/22-rdf-syntax-ns#" xmlns:sodipodi="http://sodipodi.sourceforge.net/DTD/sodipodi-0.dtd" xmlns:svg="http://www.w3.org/2000/svg"
	 xmlns="http://www.w3.org/2000/svg" xmlns:xlink="http://www.w3.org/1999/xlink" x="0px" y="0px" viewBox="0 0 62 92"
	 style="enable-background:new 0 0 62 92;" xml:space="preserve">
<g transform="translate(0,-952.36218)">
	<path d="M44.4,952.8l-4.4,3.6H27.6c-0.7,0-1.4,0.4-1.8,1H15.6c-0.7,0-1.5,0.4-1.8,1.1c-12.7,25.2-16.3,38.7-12.2,68.4
		c0.1,1,1,1.7,2,1.7h2c1.1,0,2.1-1.2,2-2.3c-2.9-19.4-2-29.4,4.7-46.6l7.9-5.3h3.4v4.1c-5.6,3.9-10.6,9.8-11,17.9
		c-1.9,4-2,7.6-1.1,12.3c-0.9,3.1-0.8,6.5,1,10.3c-0.8,4.9,0.4,8.6,3.3,12.5c2.1,5.2,5.5,9.4,10.7,12.6c0.3,0.2,0.7,0.3,1.1,0.3
		h16.9c0.4,0,0.8-0.1,1.1-0.3c5.9-3.9,8.6-6.6,10.6-12.6c3.5-3.9,4.1-8.1,4.2-12.4c1.9-4,2-8.1,1.1-11.3c0.9-3.8,0.8-7.3-1-11.2
		c-0.4-9-4.9-14.2-10.8-18v-6.2c0-1-1-2-2-2v-5.2l4.4-4.4c0.8-0.7,0.8-2.1,0-2.8l-5-5C46.1,952.1,45.3,952.3,44.4,952.8z
		 M29.6,960.3c4.7,0,9.3,0,14,0c0,3.3,0,6.7,0,10c-6.3,0-12.7,0-19,0v-2h3c1,0,2-1,2-2V960.3z M16.8,961.3h8.8v3h-3c-1,0-2,1-2,2v4
		c-0.8-0.1-1.5,0.1-2.1,0.3l-8.6,5.7C11.8,971.8,14.1,966.8,16.8,961.3z M17.6,965.3c-1.1,0-2,0.9-2,2c0,1.1,0.9,2,2,2s2-0.9,2-2
		C19.6,966.2,18.7,965.3,17.6,965.3z M27.6,974.3h18v5c0,0.5,0.2,1,0.6,1.4l3.2,3.2c-2.1,0.8-4.2,1.3-6.4,1.7
		c-0.5-1.9-1-3.8-1.6-5.8c-0.3-0.9-1.2-1.5-2.1-1.4c-1.2,0.1-2,1.5-1.7,2.6c0.5,1.8,1,3.4,1.5,5.1c-2,0.1-4,0-6.1-0.2
		c0.4-1.6,0.9-3.2,1.4-4.9c0.4-1.3-0.8-2.7-2.1-2.6c-0.8,0.1-1.5,0.7-1.7,1.4c-0.6,1.9-1.1,3.7-1.5,5.5c-1.8-0.4-3.6-0.8-5.3-1.4
		l3.3-3c0.4-0.4,0.6-0.9,0.6-1.4L27.6,974.3z M20.6,986.9c2.4,1,4.9,1.8,7.5,2.3c-0.6,2.8-1.1,5.5-1.5,8.2c-3.8-0.5-7.2-1.4-9.9-2.4
		C16.9,991.6,18.2,989.9,20.6,986.9z M52.7,987c2.5,1.9,3.9,4.8,3.9,8.1c-2.8,1.2-6.8,2.1-11.1,2.6c-0.4-2.6-0.9-5.3-1.5-8.1
		C47,989,49.9,988.1,52.7,987z M32,989.8c2.7,0.3,5.4,0.4,8,0.2c0.6,2.8,1.1,5.4,1.5,8c-3.8,0.2-7.6,0.2-11.1-0.1
		C30.8,995.2,31.3,992.5,32,989.8L32,989.8z M15.8,999c3,1.1,6.5,1.9,10.2,2.4c-0.3,2.6-0.4,5.2-0.4,7.8c-3.9-0.6-7.8-1.5-10.4-2.7
		C14.9,1006,14.5,1002.2,15.8,999z M57.2,999.1c1.1,2.6,1,4.6,0.4,7.5c-2.7,1.3-6.7,2.3-11.2,2.9c0-2.6-0.2-5.3-0.4-7.9
		C50.2,1001.1,54,1000.3,57.2,999.1z M29.9,1001.8c4.2,0.3,8.2,0.4,12.1,0.1c0.3,2.7,0.4,5.3,0.5,7.9c-4.4,0.3-8.9,0.2-13-0.2
		C29.5,1007.1,29.6,1004.5,29.9,1001.8L29.9,1001.8z M15.1,1010.7c3,1.2,6.6,2,10.5,2.6c0.1,2,0.1,4,0.3,6c-3.9-0.6-7.4-1.5-10-2.6
		C14.8,1014.3,14.7,1012.5,15.1,1010.7z M58,1010.8c0.2,1.8-0.1,3.9-1,6.1c-2.7,1.2-6.6,2.1-10.9,2.7c0.2-2,0.3-4,0.3-6
		C50.7,1013.1,54.7,1012.2,58,1010.8z M29.5,1013.8c4.5,0.4,8.8,0.4,13,0.1c-0.1,2-0.2,4-0.4,6c-4.1,0.3-8.3,0.2-12.1-0.2
		C29.7,1017.7,29.6,1015.7,29.5,1013.8L29.5,1013.8z M16.2,1021.1c3,1.1,6.4,1.8,10.1,2.3c0.2,1.9,0.5,3.8,0.8,5.8
		c-4.1-0.5-7.1-1.7-9.7-2.6C16.4,1024.9,16,1023.3,16.2,1021.1L16.2,1021.1z M56.2,1021.5c-0.2,2.2-0.7,4-1.7,5.6
		c-2.7,1.1-6,2-9.7,2.5c0.3-2,0.6-4,0.8-5.9C49.5,1023.3,53.1,1022.6,56.2,1021.5z M30.4,1023.9c3.9,0.3,7.6,0.3,11.2,0.1
		c-0.2,1.9-0.5,3.9-0.9,6c-3.2,0.2-6.5,0.1-9.5-0.2C30.9,1027.8,30.6,1025.8,30.4,1023.9L30.4,1023.9z M20.4,1031.9
		c2.3,0.7,4.8,1.2,7.4,1.6c0.4,2.2,0.8,4.5,1.3,6.9h-0.9C24.6,1038.1,22.1,1035.3,20.4,1031.9L20.4,1031.9z M51.5,1032.4
		c-1.5,3.5-3.3,5-7.8,8h-0.8c0.4-2.3,0.9-4.5,1.2-6.7C46.7,1033.4,49.2,1033,51.5,1032.4z M31.9,1033.9c2.9,0.2,5.5,0.3,8.1,0.2
		c-0.4,2-0.8,4.1-1.2,6.3h-5.7C32.7,1038.1,32.3,1036,31.9,1033.9z"/>
</g>
</svg>
