<?xml version="1.0" encoding="utf-8"?>
<!-- Generator: Adobe Illustrator 25.2.1, SVG Export Plug-In . SVG Version: 6.00 Build 0)  -->
<svg version="1.1" id="Calque_1" xmlns="http://www.w3.org/2000/svg" xmlns:xlink="http://www.w3.org/1999/xlink" x="0px" y="0px"
	 viewBox="0 0 255.6 290.5" style="enable-background:new 0 0 255.6 290.5;" xml:space="preserve">
<style type="text/css">
	.st0{fill:#F8D098;}
	.st1{fill:#4D3605;}
	.st2{fill:#BE1E2D;}
	.st3{fill:#FCBA63;}
</style>
<g>
	<rect x="0.4" y="217.8" class="st0" width="18.1" height="18.2"/>
	<rect x="0.4" y="199.7" class="st0" width="18.1" height="18.2"/>
	<rect x="0.4" y="181.5" class="st0" width="18.1" height="18.2"/>
	<rect x="0.4" y="163.4" class="st1" width="18.1" height="18.2"/>
	<g>
		<rect x="18.6" y="272.3" class="st1" width="18.1" height="18.2"/>
		<rect x="36.8" y="272.3" class="st1" width="18.1" height="18.2"/>
		<rect x="54.9" y="272.3" class="st1" width="18.1" height="18.2"/>
		<rect x="73.1" y="272.3" class="st1" width="18.1" height="18.2"/>
		<rect x="163.9" y="272.3" class="st1" width="18.1" height="18.2"/>
		<rect x="182.1" y="272.3" class="st1" width="18.1" height="18.2"/>
		<rect x="200.3" y="272.3" class="st1" width="18.1" height="18.2"/>
		<rect x="218.4" y="272.3" class="st1" width="18.1" height="18.2"/>
		<rect x="36.8" y="254.1" class="st1" width="18.1" height="18.2"/>
		<rect x="54.9" y="254.1" class="st1" width="18.1" height="18.2"/>
		<rect x="73.1" y="254.1" class="st1" width="18.1" height="18.2"/>
		<rect x="163.9" y="254.1" class="st1" width="18.1" height="18.2"/>
		<rect x="182.1" y="254.1" class="st1" width="18.1" height="18.2"/>
		<rect x="200.3" y="254.1" class="st1" width="18.1" height="18.2"/>
		<rect x="54.9" y="236" class="st2" width="18.1" height="18.2"/>
		<rect x="73.1" y="236" class="st2" width="18.1" height="18.2"/>
		<rect x="91.3" y="236" class="st2" width="18.1" height="18.2"/>
		<rect x="145.8" y="236" class="st2" width="18.1" height="18.2"/>
		<rect x="163.9" y="236" class="st2" width="18.1" height="18.2"/>
		<rect x="182.1" y="236" class="st2" width="18.1" height="18.2"/>
		<rect x="18.6" y="217.8" class="st3" width="18.1" height="18.2"/>
		<rect x="36.8" y="217.8" class="st3" width="18.1" height="18.2"/>
		<rect x="54.9" y="217.8" class="st2" width="18.1" height="18.2"/>
		<rect x="73.1" y="217.8" class="st2" width="18.1" height="18.2"/>
		<rect x="91.3" y="217.8" class="st2" width="18.1" height="18.2"/>
		<rect x="109.4" y="217.8" class="st2" width="18.1" height="18.2"/>
		<rect x="127.6" y="217.8" class="st2" width="18.1" height="18.2"/>
		<rect x="145.8" y="217.8" class="st2" width="18.1" height="18.2"/>
		<rect x="163.9" y="217.8" class="st2" width="18.1" height="18.2"/>
		<rect x="182.1" y="217.8" class="st2" width="18.1" height="18.2"/>
		<rect x="200.3" y="217.8" class="st3" width="18.1" height="18.2"/>
		<rect x="218.4" y="217.8" class="st3" width="18.1" height="18.2"/>
		<rect x="236.6" y="217.8" class="st3" width="18.1" height="18.2"/>
		<rect x="18.6" y="199.7" class="st3" width="18.1" height="18.2"/>
		<rect x="36.8" y="199.7" class="st3" width="18.1" height="18.2"/>
		<rect x="54.9" y="199.7" class="st3" width="18.1" height="18.2"/>
		<rect x="73.1" y="199.7" class="st2" width="18.1" height="18.2"/>
		<rect x="91.3" y="199.7" class="st2" width="18.1" height="18.2"/>
		<rect x="109.4" y="199.7" class="st2" width="18.1" height="18.2"/>
		<rect x="127.6" y="199.7" class="st2" width="18.1" height="18.2"/>
		<rect x="145.8" y="199.7" class="st2" width="18.1" height="18.2"/>
		<rect x="163.9" y="199.7" class="st2" width="18.1" height="18.2"/>
		<rect x="182.1" y="199.7" class="st3" width="18.1" height="18.2"/>
		<rect x="200.3" y="199.7" class="st3" width="18.1" height="18.2"/>
		<rect x="218.4" y="199.7" class="st3" width="18.1" height="18.2"/>
		<rect x="236.6" y="199.7" class="st3" width="18.1" height="18.2"/>
		<rect x="18.6" y="181.5" class="st3" width="18.1" height="18.2"/>
		<rect x="36.8" y="181.5" class="st3" width="18.1" height="18.2"/>
		<rect x="54.9" y="181.5" class="st1" width="18.1" height="18.2"/>
		<rect x="73.1" y="181.5" class="st2" width="18.1" height="18.2"/>
		<rect x="91.3" y="181.5" class="st3" width="18.1" height="18.2"/>
		<rect x="109.4" y="181.5" class="st2" width="18.1" height="18.2"/>
		<rect x="127.6" y="181.5" class="st2" width="18.1" height="18.2"/>
		<rect x="145.8" y="181.5" class="st3" width="18.1" height="18.2"/>
		<rect x="163.9" y="181.5" class="st2" width="18.1" height="18.2"/>
		<rect x="182.1" y="181.5" class="st1" width="18.1" height="18.2"/>
		<rect x="200.3" y="181.5" class="st3" width="18.1" height="18.2"/>
		<rect x="218.4" y="181.5" class="st3" width="18.1" height="18.2"/>
		<rect x="236.6" y="181.5" class="st3" width="18.1" height="18.2"/>
		<rect x="18.6" y="163.4" class="st1" width="18.1" height="18.2"/>
		<rect x="36.8" y="163.4" class="st1" width="18.1" height="18.2"/>
		<rect x="54.9" y="163.4" class="st1" width="18.1" height="18.2"/>
		<rect x="73.1" y="163.4" class="st1" width="18.1" height="18.2"/>
		<rect x="91.3" y="163.4" class="st2" width="18.1" height="18.2"/>
		<rect x="109.4" y="163.4" class="st2" width="18.1" height="18.2"/>
		<rect x="127.6" y="163.4" class="st2" width="18.1" height="18.2"/>
		<rect x="145.8" y="163.4" class="st2" width="18.1" height="18.2"/>
		<rect x="163.9" y="163.4" class="st1" width="18.1" height="18.2"/>
		<rect x="182.1" y="163.4" class="st1" width="18.1" height="18.2"/>
		<rect x="200.3" y="163.4" class="st1" width="18.1" height="18.2"/>
		<rect x="218.4" y="163.4" class="st1" width="18.1" height="18.2"/>
		<rect x="236.6" y="163.4" class="st1" width="18.1" height="18.2"/>
		<rect x="18.6" y="145.2" class="st1" width="18.1" height="18.2"/>
		<rect x="36.8" y="145.2" class="st1" width="18.1" height="18.2"/>
		<rect x="54.9" y="145.2" class="st1" width="18.1" height="18.2"/>
		<rect x="73.1" y="145.2" class="st1" width="18.1" height="18.2"/>
		<rect x="91.3" y="145.2" class="st2" width="18.1" height="18.2"/>
		<rect x="109.4" y="145.2" class="st1" width="18.1" height="18.2"/>
		<rect x="127.6" y="145.2" class="st1" width="18.1" height="18.2"/>
		<rect x="145.8" y="145.2" class="st2" width="18.1" height="18.2"/>
		<rect x="163.9" y="145.2" class="st1" width="18.1" height="18.2"/>
		<rect x="182.1" y="145.2" class="st1" width="18.1" height="18.2"/>
		<rect x="200.3" y="145.2" class="st1" width="18.1" height="18.2"/>
		<rect x="218.4" y="145.2" class="st1" width="18.1" height="18.2"/>
		<rect x="36.8" y="127.1" class="st1" width="18.1" height="18.2"/>
		<rect x="54.9" y="127.1" class="st1" width="18.1" height="18.2"/>
		<rect x="73.1" y="127.1" class="st1" width="18.1" height="18.2"/>
		<rect x="91.3" y="127.1" class="st2" width="18.1" height="18.2"/>
		<rect x="109.4" y="127.1" class="st1" width="18.1" height="18.2"/>
		<rect x="127.6" y="127.1" class="st1" width="18.1" height="18.2"/>
		<rect x="145.8" y="127.1" class="st1" width="18.1" height="18.2"/>
		<rect x="73.1" y="108.9" class="st3" width="18.1" height="18.2"/>
		<rect x="91.3" y="108.9" class="st3" width="18.1" height="18.2"/>
		<rect x="109.4" y="108.9" class="st3" width="18.1" height="18.2"/>
		<rect x="127.6" y="108.9" class="st3" width="18.1" height="18.2"/>
		<rect x="145.8" y="108.9" class="st3" width="18.1" height="18.2"/>
		<rect x="163.9" y="108.9" class="st3" width="18.1" height="18.2"/>
		<rect x="182.1" y="108.9" class="st3" width="18.1" height="18.2"/>
		<rect x="36.8" y="90.8" class="st1" width="18.1" height="18.2"/>
		<rect x="54.9" y="90.8" class="st1" width="18.1" height="18.2"/>
		<rect x="73.1" y="90.8" class="st3" width="18.1" height="18.2"/>
		<rect x="91.3" y="90.8" class="st3" width="18.1" height="18.2"/>
		<rect x="109.4" y="90.8" class="st3" width="18.1" height="18.2"/>
		<rect x="127.6" y="90.8" class="st3" width="18.1" height="18.2"/>
		<rect x="145.8" y="90.8" class="st1" width="18.1" height="18.2"/>
		<rect x="163.9" y="90.8" class="st1" width="18.1" height="18.2"/>
		<rect x="182.1" y="90.8" class="st1" width="18.1" height="18.2"/>
		<rect x="200.3" y="90.8" class="st1" width="18.1" height="18.2"/>
		<rect x="36.8" y="72.6" class="st1" width="18.1" height="18.2"/>
		<rect x="54.9" y="72.6" class="st3" width="18.1" height="18.2"/>
		<rect x="73.1" y="72.6" class="st1" width="18.1" height="18.2"/>
		<rect x="91.3" y="72.6" class="st1" width="18.1" height="18.2"/>
		<rect x="109.4" y="72.6" class="st3" width="18.1" height="18.2"/>
		<rect x="127.6" y="72.6" class="st3" width="18.1" height="18.2"/>
		<rect x="145.8" y="72.6" class="st3" width="18.1" height="18.2"/>
		<rect x="163.9" y="72.6" class="st1" width="18.1" height="18.2"/>
		<rect x="182.1" y="72.6" class="st3" width="18.1" height="18.2"/>
		<rect x="200.3" y="72.6" class="st3" width="18.1" height="18.2"/>
		<rect x="218.4" y="72.6" class="st3" width="18.1" height="18.2"/>
		<rect x="36.8" y="54.5" class="st1" width="18.1" height="18.2"/>
		<rect x="54.9" y="54.5" class="st3" width="18.1" height="18.2"/>
		<rect x="73.1" y="54.5" class="st1" width="18.1" height="18.2"/>
		<rect x="91.3" y="54.5" class="st3" width="18.1" height="18.2"/>
		<rect x="109.4" y="54.5" class="st3" width="18.1" height="18.2"/>
		<rect x="127.6" y="54.5" class="st3" width="18.1" height="18.2"/>
		<rect x="145.8" y="54.5" class="st1" width="18.1" height="18.2"/>
		<rect x="163.9" y="54.5" class="st3" width="18.1" height="18.2"/>
		<rect x="182.1" y="54.5" class="st3" width="18.1" height="18.2"/>
		<rect x="200.3" y="54.5" class="st3" width="18.1" height="18.2"/>
		<rect x="54.9" y="36.3" class="st1" width="18.1" height="18.2"/>
		<rect x="73.1" y="36.3" class="st1" width="18.1" height="18.2"/>
		<rect x="91.3" y="36.3" class="st1" width="18.1" height="18.2"/>
		<rect x="109.4" y="36.3" class="st3" width="18.1" height="18.2"/>
		<rect x="127.6" y="36.3" class="st3" width="18.1" height="18.2"/>
		<rect x="145.8" y="36.3" class="st1" width="18.1" height="18.2"/>
		<rect x="163.9" y="36.3" class="st3" width="18.1" height="18.2"/>
		<rect x="54.9" y="18.2" class="st2" width="18.1" height="18.2"/>
		<rect x="73.1" y="18.2" class="st2" width="18.1" height="18.2"/>
		<rect x="91.3" y="18.2" class="st2" width="18.1" height="18.2"/>
		<rect x="109.4" y="18.2" class="st2" width="18.1" height="18.2"/>
		<rect x="127.6" y="18.2" class="st2" width="18.1" height="18.2"/>
		<rect x="145.8" y="18.2" class="st2" width="18.1" height="18.2"/>
		<rect x="163.9" y="18.2" class="st2" width="18.1" height="18.2"/>
		<rect x="182.1" y="18.2" class="st2" width="18.1" height="18.2"/>
		<rect x="200.3" y="18.2" class="st2" width="18.1" height="18.2"/>
		<rect x="73.1" class="st2" width="18.1" height="18.2"/>
		<rect x="91.3" class="st2" width="18.1" height="18.2"/>
		<rect x="109.4" class="st2" width="18.1" height="18.2"/>
		<rect x="127.6" class="st2" width="18.1" height="18.2"/>
		<rect x="145.8" class="st2" width="18.1" height="18.2"/>
	</g>
</g>
</svg>
