<?xml version="1.0" encoding="utf-8"?>
<!-- Generator: Adobe Illustrator 25.2.1, SVG Export Plug-In . SVG Version: 6.00 Build 0)  -->
<svg version="1.1" id="Calque_1" xmlns="http://www.w3.org/2000/svg" xmlns:xlink="http://www.w3.org/1999/xlink" x="0px" y="0px"
	 viewBox="0 0 251.4 271.3" style="enable-background:new 0 0 251.4 271.3;" xml:space="preserve">
<style type="text/css">
	.st0{fill:#1B75BB;}
	.st1{fill:#AEDEE4;}
	.st2{fill:#F5DCCF;}
	.st3{fill:#FFFFFF;}
</style>
<g>
	<rect x="239.4" y="259.9" width="12" height="11.4"/>
	<rect x="227.4" y="259.9" width="11.9" height="11.4"/>
	<rect x="215.5" y="259.9" width="12" height="11.4"/>
	<rect x="203.5" y="259.9" width="11.9" height="11.4"/>
	<rect x="191.5" y="259.9" width="12" height="11.4"/>
	<rect x="179.6" y="259.9" width="11.9" height="11.4"/>
	<rect x="167.6" y="259.9" width="12" height="11.4"/>
	<rect x="155.6" y="259.9" width="11.9" height="11.4"/>
	<rect x="143.6" y="259.9" width="12" height="11.4"/>
	<rect x="95.8" y="259.9" width="11.9" height="11.4"/>
	<rect x="83.8" y="259.9" width="11.9" height="11.4"/>
	<rect x="71.8" y="259.9" width="12" height="11.4"/>
	<rect x="59.9" y="259.9" width="11.9" height="11.4"/>
	<rect x="47.9" y="259.9" width="12" height="11.4"/>
	<rect x="35.9" y="259.9" width="11.9" height="11.4"/>
	<rect x="23.9" y="259.9" width="12" height="11.4"/>
	<rect x="12" y="259.9" width="11.9" height="11.4"/>
	<rect y="259.9" width="12" height="11.4"/>
	<rect x="239.4" y="248.6" width="12" height="11.4"/>
	<rect x="227.4" y="248.6" class="st0" width="11.9" height="11.4"/>
	<rect x="215.5" y="248.6" class="st0" width="12" height="11.4"/>
	<rect x="203.5" y="248.6" class="st0" width="11.9" height="11.4"/>
	<rect x="191.5" y="248.6" class="st0" width="12" height="11.4"/>
	<rect x="179.6" y="248.6" class="st0" width="11.9" height="11.4"/>
	<rect x="167.6" y="248.6" class="st0" width="12" height="11.4"/>
	<rect x="155.6" y="248.6" class="st0" width="11.9" height="11.4"/>
	<rect x="143.6" y="248.6" width="12" height="11.4"/>
	<rect x="95.8" y="248.6" width="11.9" height="11.4"/>
	<rect x="83.8" y="248.6" class="st0" width="11.9" height="11.4"/>
	<rect x="71.8" y="248.6" class="st0" width="12" height="11.4"/>
	<rect x="59.9" y="248.6" class="st0" width="11.9" height="11.4"/>
	<rect x="47.9" y="248.6" class="st0" width="12" height="11.4"/>
	<rect x="35.9" y="248.6" class="st0" width="11.9" height="11.4"/>
	<rect x="23.9" y="248.6" class="st0" width="12" height="11.4"/>
	<rect x="12" y="248.6" class="st0" width="11.9" height="11.4"/>
	<rect y="248.6" width="12" height="11.4"/>
	<rect x="227.4" y="237.3" width="11.9" height="11.4"/>
	<rect x="215.5" y="237.3" width="12" height="11.4"/>
	<rect x="203.5" y="237.3" class="st0" width="11.9" height="11.4"/>
	<rect x="191.5" y="237.3" class="st0" width="12" height="11.4"/>
	<rect x="179.6" y="237.3" class="st0" width="11.9" height="11.4"/>
	<rect x="167.6" y="237.3" class="st0" width="12" height="11.4"/>
	<rect x="155.6" y="237.3" class="st0" width="11.9" height="11.4"/>
	<rect x="143.6" y="237.3" width="12" height="11.4"/>
	<rect x="95.8" y="237.3" width="11.9" height="11.4"/>
	<rect x="83.8" y="237.3" class="st0" width="11.9" height="11.4"/>
	<rect x="71.8" y="237.3" class="st0" width="12" height="11.4"/>
	<rect x="59.9" y="237.3" class="st0" width="11.9" height="11.4"/>
	<rect x="47.9" y="237.3" class="st0" width="12" height="11.4"/>
	<rect x="35.9" y="237.3" class="st0" width="11.9" height="11.4"/>
	<rect x="23.9" y="237.3" width="12" height="11.4"/>
	<rect x="12" y="237.3" width="11.9" height="11.4"/>
	<rect x="203.5" y="226" width="11.9" height="11.4"/>
	<rect x="191.5" y="226" width="12" height="11.4"/>
	<rect x="179.6" y="226" class="st0" width="11.9" height="11.4"/>
	<rect x="167.6" y="226" class="st0" width="12" height="11.4"/>
	<rect x="155.6" y="226" class="st0" width="11.9" height="11.4"/>
	<rect x="143.6" y="226" class="st1" width="12" height="11.4"/>
	<rect x="131.7" y="226" width="11.9" height="11.4"/>
	<rect x="107.7" y="226" width="11.9" height="11.4"/>
	<rect x="95.8" y="226" class="st1" width="11.9" height="11.4"/>
	<rect x="83.8" y="226" class="st0" width="11.9" height="11.4"/>
	<rect x="71.8" y="226" class="st0" width="12" height="11.4"/>
	<rect x="59.9" y="226" class="st0" width="11.9" height="11.4"/>
	<rect x="47.9" y="226" width="12" height="11.4"/>
	<rect x="35.9" y="226" width="11.9" height="11.4"/>
	<rect x="191.5" y="214.7" width="12" height="11.4"/>
	<rect x="179.6" y="214.7" class="st0" width="11.9" height="11.4"/>
	<rect x="167.6" y="214.7" class="st0" width="12" height="11.4"/>
	<rect x="155.6" y="214.7" class="st1" width="11.9" height="11.4"/>
	<rect x="143.6" y="214.7" class="st1" width="12" height="11.4"/>
	<rect x="131.7" y="214.7" class="st1" width="11.9" height="11.4"/>
	<rect x="119.7" y="214.7" width="11.9" height="11.4"/>
	<rect x="107.7" y="214.7" class="st1" width="11.9" height="11.4"/>
	<rect x="95.8" y="214.7" class="st1" width="11.9" height="11.4"/>
	<rect x="83.8" y="214.7" class="st1" width="11.9" height="11.4"/>
	<rect x="71.8" y="214.7" class="st1" width="12" height="11.4"/>
	<rect x="59.9" y="214.7" class="st0" width="11.9" height="11.4"/>
	<rect x="47.9" y="214.7" width="12" height="11.4"/>
	<rect x="179.6" y="203.4" width="11.9" height="11.4"/>
	<rect x="167.6" y="203.4" class="st1" width="12" height="11.4"/>
	<rect x="155.6" y="203.4" class="st1" width="11.9" height="11.4"/>
	<rect x="143.6" y="203.4" class="st0" width="12" height="11.4"/>
	<rect x="131.7" y="203.4" class="st0" width="11.9" height="11.4"/>
	<rect x="119.7" y="203.4" class="st0" width="11.9" height="11.4"/>
	<rect x="107.7" y="203.4" class="st0" width="11.9" height="11.4"/>
	<rect x="95.8" y="203.4" class="st1" width="11.9" height="11.4"/>
	<rect x="83.8" y="203.4" class="st1" width="11.9" height="11.4"/>
	<rect x="71.8" y="203.4" class="st1" width="12" height="11.4"/>
	<rect x="59.9" y="203.4" width="11.9" height="11.4"/>
	<rect x="215.5" y="192.1" width="12" height="11.4"/>
	<rect x="203.5" y="192.1" width="11.9" height="11.4"/>
	<rect x="191.5" y="192.1" width="12" height="11.4"/>
	<rect x="167.6" y="192.1" width="12" height="11.4"/>
	<rect x="155.6" y="192.1" class="st0" width="11.9" height="11.4"/>
	<rect x="143.6" y="192.1" class="st0" width="12" height="11.4"/>
	<rect x="131.7" y="192.1" class="st0" width="11.9" height="11.4"/>
	<rect x="119.7" y="192.1" class="st0" width="11.9" height="11.4"/>
	<rect x="107.7" y="192.1" class="st0" width="11.9" height="11.4"/>
	<rect x="95.8" y="192.1" class="st0" width="11.9" height="11.4"/>
	<rect x="83.8" y="192.1" class="st0" width="11.9" height="11.4"/>
	<rect x="71.8" y="192.1" width="12" height="11.4"/>
	<rect x="47.9" y="192.1" width="12" height="11.4"/>
	<rect x="35.9" y="192.1" width="11.9" height="11.4"/>
	<rect x="23.9" y="192.1" width="12" height="11.4"/>
	<rect x="227.4" y="180.8" width="11.9" height="11.4"/>
	<rect x="215.5" y="180.8" class="st0" width="12" height="11.4"/>
	<rect x="203.5" y="180.8" class="st0" width="11.9" height="11.4"/>
	<rect x="191.5" y="180.8" class="st0" width="12" height="11.4"/>
	<rect x="179.6" y="180.8" width="11.9" height="11.4"/>
	<rect x="167.6" y="180.8" width="12" height="11.4"/>
	<rect x="155.6" y="180.8" class="st0" width="11.9" height="11.4"/>
	<rect x="143.6" y="180.8" class="st0" width="12" height="11.4"/>
	<rect x="131.7" y="180.8" class="st0" width="11.9" height="11.4"/>
	<rect x="119.7" y="180.8" class="st0" width="11.9" height="11.4"/>
	<rect x="107.7" y="180.8" class="st0" width="11.9" height="11.4"/>
	<rect x="95.8" y="180.8" class="st0" width="11.9" height="11.4"/>
	<rect x="83.8" y="180.8" class="st0" width="11.9" height="11.4"/>
	<rect x="71.8" y="180.8" width="12" height="11.4"/>
	<rect x="59.9" y="180.8" width="11.9" height="11.4"/>
	<rect x="47.9" y="180.8" class="st0" width="12" height="11.4"/>
	<rect x="35.9" y="180.8" class="st0" width="11.9" height="11.4"/>
	<rect x="23.9" y="180.8" class="st0" width="12" height="11.4"/>
	<rect x="12" y="180.8" width="11.9" height="11.4"/>
	<rect x="227.4" y="169.5" width="11.9" height="11.4"/>
	<rect x="215.5" y="169.5" class="st0" width="12" height="11.4"/>
	<rect x="203.5" y="169.5" class="st0" width="11.9" height="11.4"/>
	<rect x="191.5" y="169.5" class="st0" width="12" height="11.4"/>
	<rect x="179.6" y="169.5" width="11.9" height="11.4"/>
	<rect x="167.6" y="169.5" width="12" height="11.4"/>
	<rect x="155.6" y="169.5" class="st1" width="11.9" height="11.4"/>
	<rect x="143.6" y="169.5" class="st1" width="12" height="11.4"/>
	<rect x="131.7" y="169.5" class="st1" width="11.9" height="11.4"/>
	<rect x="119.7" y="169.5" class="st1" width="11.9" height="11.4"/>
	<rect x="107.7" y="169.5" class="st1" width="11.9" height="11.4"/>
	<rect x="95.8" y="169.5" class="st1" width="11.9" height="11.4"/>
	<rect x="83.8" y="169.5" class="st1" width="11.9" height="11.4"/>
	<rect x="71.8" y="169.5" width="12" height="11.4"/>
	<rect x="59.9" y="169.5" width="11.9" height="11.4"/>
	<rect x="47.9" y="169.5" class="st0" width="12" height="11.4"/>
	<rect x="35.9" y="169.5" class="st0" width="11.9" height="11.4"/>
	<rect x="23.9" y="169.5" class="st0" width="12" height="11.4"/>
	<rect x="12" y="169.5" width="11.9" height="11.4"/>
	<rect x="227.4" y="158.2" width="11.9" height="11.4"/>
	<rect x="215.5" y="158.2" class="st0" width="12" height="11.4"/>
	<rect x="203.5" y="158.2" class="st0" width="11.9" height="11.4"/>
	<rect x="191.5" y="158.2" width="12" height="11.4"/>
	<rect x="179.6" y="158.2" width="11.9" height="11.4"/>
	<rect x="167.6" y="158.2" width="12" height="11.4"/>
	<rect x="155.6" y="158.2" class="st1" width="11.9" height="11.4"/>
	<rect x="143.6" y="158.2" class="st1" width="12" height="11.4"/>
	<rect x="131.7" y="158.2" class="st1" width="11.9" height="11.4"/>
	<rect x="119.7" y="158.2" class="st1" width="11.9" height="11.4"/>
	<rect x="107.7" y="158.2" class="st1" width="11.9" height="11.4"/>
	<rect x="95.8" y="158.2" class="st1" width="11.9" height="11.4"/>
	<rect x="83.8" y="158.2" class="st1" width="11.9" height="11.4"/>
	<rect x="71.8" y="158.2" width="12" height="11.4"/>
	<rect x="59.9" y="158.2" width="11.9" height="11.4"/>
	<rect x="47.9" y="158.2" width="12" height="11.4"/>
	<rect x="35.9" y="158.2" class="st0" width="11.9" height="11.4"/>
	<rect x="23.9" y="158.2" class="st0" width="12" height="11.4"/>
	<rect x="12" y="158.2" width="11.9" height="11.4"/>
	<rect x="227.4" y="146.9" width="11.9" height="11.4"/>
	<rect x="215.5" y="146.9" class="st0" width="12" height="11.4"/>
	<rect x="203.5" y="146.9" class="st0" width="11.9" height="11.4"/>
	<rect x="191.5" y="146.9" class="st0" width="12" height="11.4"/>
	<rect x="179.6" y="146.9" class="st1" width="11.9" height="11.4"/>
	<rect x="167.6" y="146.9" width="12" height="11.4"/>
	<rect x="155.6" y="146.9" class="st1" width="11.9" height="11.4"/>
	<rect x="143.6" y="146.9" class="st1" width="12" height="11.4"/>
	<rect x="131.7" y="146.9" class="st1" width="11.9" height="11.4"/>
	<rect x="119.7" y="146.9" class="st1" width="11.9" height="11.4"/>
	<rect x="107.7" y="146.9" class="st1" width="11.9" height="11.4"/>
	<rect x="95.8" y="146.9" class="st1" width="11.9" height="11.4"/>
	<rect x="83.8" y="146.9" class="st1" width="11.9" height="11.4"/>
	<rect x="71.8" y="146.9" width="12" height="11.4"/>
	<rect x="59.9" y="146.9" class="st1" width="11.9" height="11.4"/>
	<rect x="47.9" y="146.9" class="st0" width="12" height="11.4"/>
	<rect x="35.9" y="146.9" class="st0" width="11.9" height="11.4"/>
	<rect x="23.9" y="146.9" class="st0" width="12" height="11.4"/>
	<rect x="12" y="146.9" width="11.9" height="11.4"/>
	<rect x="215.5" y="135.6" width="12" height="11.4"/>
	<rect x="203.5" y="135.6" class="st0" width="11.9" height="11.4"/>
	<rect x="191.5" y="135.6" class="st0" width="12" height="11.4"/>
	<rect x="179.6" y="135.6" class="st1" width="11.9" height="11.4"/>
	<rect x="167.6" y="135.6" class="st1" width="12" height="11.4"/>
	<rect x="155.6" y="135.6" class="st1" width="11.9" height="11.4"/>
	<rect x="143.6" y="135.6" class="st1" width="12" height="11.4"/>
	<rect x="131.7" y="135.6" width="11.9" height="11.4"/>
	<rect x="119.7" y="135.6" width="11.9" height="11.4"/>
	<rect x="107.7" y="135.6" width="11.9" height="11.4"/>
	<rect x="95.8" y="135.6" width="11.9" height="11.4"/>
	<rect x="83.8" y="135.6" width="11.9" height="11.4"/>
	<rect x="71.8" y="135.6" class="st1" width="12" height="11.4"/>
	<rect x="59.9" y="135.6" class="st1" width="11.9" height="11.4"/>
	<rect x="47.9" y="135.6" class="st0" width="12" height="11.4"/>
	<rect x="35.9" y="135.6" class="st0" width="11.9" height="11.4"/>
	<rect x="23.9" y="135.6" width="12" height="11.4"/>
	<rect x="215.5" y="124.3" width="12" height="11.4"/>
	<rect x="203.5" y="124.3" class="st0" width="11.9" height="11.4"/>
	<rect x="191.5" y="124.3" class="st1" width="12" height="11.4"/>
	<rect x="179.6" y="124.3" class="st1" width="11.9" height="11.4"/>
	<rect x="167.6" y="124.3" class="st1" width="12" height="11.4"/>
	<rect x="155.6" y="124.3" class="st1" width="11.9" height="11.4"/>
	<rect x="143.6" y="124.3" width="12" height="11.4"/>
	<rect x="131.7" y="124.3" class="st2" width="11.9" height="11.4"/>
	<rect x="119.7" y="124.3" class="st2" width="11.9" height="11.4"/>
	<rect x="107.7" y="124.3" class="st2" width="11.9" height="11.4"/>
	<rect x="95.8" y="124.3" class="st2" width="11.9" height="11.4"/>
	<rect x="83.8" y="124.3" class="st2" width="11.9" height="11.4"/>
	<rect x="71.8" y="124.3" width="12" height="11.4"/>
	<rect x="59.9" y="124.3" class="st1" width="11.9" height="11.4"/>
	<rect x="47.9" y="124.3" class="st1" width="12" height="11.4"/>
	<rect x="35.9" y="124.3" class="st0" width="11.9" height="11.4"/>
	<rect x="23.9" y="124.3" width="12" height="11.4"/>
	<rect x="203.5" y="113" width="11.9" height="11.4"/>
	<rect x="191.5" y="113" width="12" height="11.4"/>
	<rect x="179.6" y="113" class="st1" width="11.9" height="11.4"/>
	<rect x="167.6" y="113" class="st1" width="12" height="11.4"/>
	<rect x="155.6" y="113" width="11.9" height="11.4"/>
	<rect x="143.6" y="113" width="12" height="11.4"/>
	<rect x="131.7" y="113" class="st2" width="11.9" height="11.4"/>
	<rect x="119.7" y="113" width="11.9" height="11.4"/>
	<rect x="107.7" y="113" width="11.9" height="11.4"/>
	<rect x="95.8" y="113" width="11.9" height="11.4"/>
	<rect x="83.8" y="113" width="11.9" height="11.4"/>
	<rect x="71.8" y="113" class="st2" width="12" height="11.4"/>
	<rect x="59.9" y="113" width="11.9" height="11.4"/>
	<rect x="47.9" y="113" width="12" height="11.4"/>
	<rect x="35.9" y="113" width="11.9" height="11.4"/>
	<rect x="179.6" y="101.7" width="11.9" height="11.4"/>
	<rect x="167.6" y="101.7" width="12" height="11.4"/>
	<rect x="155.6" y="101.7" class="st0" width="11.9" height="11.4"/>
	<rect x="143.6" y="101.7" class="st2" width="12" height="11.4"/>
	<rect x="131.7" y="101.7" class="st2" width="11.9" height="11.4"/>
	<rect x="119.7" y="101.7" class="st3" width="11.9" height="11.4"/>
	<rect x="107.7" y="101.7" class="st3" width="11.9" height="11.4"/>
	<rect x="95.8" y="101.7" class="st3" width="11.9" height="11.4"/>
	<rect x="83.8" y="101.7" class="st2" width="11.9" height="11.4"/>
	<rect x="71.8" y="101.7" class="st3" width="12" height="11.4"/>
	<rect x="59.9" y="101.7" class="st3" width="11.9" height="11.4"/>
	<rect x="47.9" y="101.7" width="12" height="11.4"/>
	<rect x="167.6" y="90.4" width="12" height="11.4"/>
	<rect x="155.6" y="90.4" class="st0" width="11.9" height="11.4"/>
	<rect x="143.6" y="90.4" class="st2" width="12" height="11.4"/>
	<rect x="131.7" y="90.4" class="st3" width="11.9" height="11.4"/>
	<rect x="119.7" y="90.4" class="st3" width="11.9" height="11.4"/>
	<rect x="107.7" y="90.4" width="11.9" height="11.4"/>
	<rect x="95.8" y="90.4" width="11.9" height="11.4"/>
	<rect x="83.8" y="90.4" class="st2" width="11.9" height="11.4"/>
	<rect x="71.8" y="90.4" width="12" height="11.4"/>
	<rect x="59.9" y="90.4" class="st3" width="11.9" height="11.4"/>
	<rect x="47.9" y="90.4" width="12" height="11.4"/>
	<rect x="179.6" y="79.1" width="11.9" height="11.4"/>
	<rect x="167.6" y="79.1" class="st1" width="12" height="11.4"/>
	<rect x="155.6" y="79.1" class="st0" width="11.9" height="11.4"/>
	<rect x="143.6" y="79.1" class="st2" width="12" height="11.4"/>
	<rect x="131.7" y="79.1" class="st3" width="11.9" height="11.4"/>
	<rect x="119.7" y="79.1" class="st3" width="11.9" height="11.4"/>
	<rect x="107.7" y="79.1" width="11.9" height="11.4"/>
	<rect x="95.8" y="79.1" width="11.9" height="11.4"/>
	<rect x="83.8" y="79.1" class="st2" width="11.9" height="11.4"/>
	<rect x="71.8" y="79.1" width="12" height="11.4"/>
	<rect x="59.9" y="79.1" class="st3" width="11.9" height="11.4"/>
	<rect x="47.9" y="79.1" width="12" height="11.4"/>
	<rect x="179.6" y="67.8" width="11.9" height="11.4"/>
	<rect x="167.6" y="67.8" class="st1" width="12" height="11.4"/>
	<rect x="155.6" y="67.8" class="st0" width="11.9" height="11.4"/>
	<rect x="143.6" y="67.8" class="st0" width="12" height="11.4"/>
	<rect x="131.7" y="67.8" class="st2" width="11.9" height="11.4"/>
	<rect x="119.7" y="67.8" class="st3" width="11.9" height="11.4"/>
	<rect x="107.7" y="67.8" class="st3" width="11.9" height="11.4"/>
	<rect x="95.8" y="67.8" class="st3" width="11.9" height="11.4"/>
	<rect x="83.8" y="67.8" class="st0" width="11.9" height="11.4"/>
	<rect x="71.8" y="67.8" class="st0" width="12" height="11.4"/>
	<rect x="59.9" y="67.8" class="st3" width="11.9" height="11.4"/>
	<rect x="47.9" y="67.8" width="12" height="11.4"/>
	<rect x="179.6" y="56.5" width="11.9" height="11.4"/>
	<rect x="167.6" y="56.5" class="st1" width="12" height="11.4"/>
	<rect x="155.6" y="56.5" class="st0" width="11.9" height="11.4"/>
	<rect x="143.6" y="56.5" class="st0" width="12" height="11.4"/>
	<rect x="131.7" y="56.5" class="st0" width="11.9" height="11.4"/>
	<rect x="119.7" y="56.5" class="st0" width="11.9" height="11.4"/>
	<rect x="107.7" y="56.5" class="st0" width="11.9" height="11.4"/>
	<rect x="95.8" y="56.5" class="st0" width="11.9" height="11.4"/>
	<rect x="83.8" y="56.5" width="11.9" height="11.4"/>
	<rect x="71.8" y="56.5" width="12" height="11.4"/>
	<rect x="59.9" y="56.5" class="st0" width="11.9" height="11.4"/>
	<rect x="47.9" y="56.5" width="12" height="11.4"/>
	<rect x="167.6" y="45.2" width="12" height="11.4"/>
	<rect x="155.6" y="45.2" class="st0" width="11.9" height="11.4"/>
	<rect x="143.6" y="45.2" class="st0" width="12" height="11.4"/>
	<rect x="131.7" y="45.2" class="st0" width="11.9" height="11.4"/>
	<rect x="119.7" y="45.2" class="st0" width="11.9" height="11.4"/>
	<rect x="107.7" y="45.2" class="st0" width="11.9" height="11.4"/>
	<rect x="95.8" y="45.2" width="11.9" height="11.4"/>
	<rect x="83.8" y="45.2" class="st1" width="11.9" height="11.4"/>
	<rect x="71.8" y="45.2" class="st1" width="12" height="11.4"/>
	<rect x="59.9" y="45.2" class="st0" width="11.9" height="11.4"/>
	<rect x="47.9" y="45.2" width="12" height="11.4"/>
	<rect x="167.6" y="33.9" width="12" height="11.4"/>
	<rect x="155.6" y="33.9" class="st0" width="11.9" height="11.4"/>
	<rect x="143.6" y="33.9" class="st0" width="12" height="11.4"/>
	<rect x="131.7" y="33.9" class="st0" width="11.9" height="11.4"/>
	<rect x="119.7" y="33.9" class="st0" width="11.9" height="11.4"/>
	<rect x="107.7" y="33.9" class="st0" width="11.9" height="11.4"/>
	<rect x="95.8" y="33.9" width="11.9" height="11.4"/>
	<rect x="83.8" y="33.9" width="11.9" height="11.4"/>
	<rect x="71.8" y="33.9" width="12" height="11.4"/>
	<rect x="59.9" y="33.9" width="11.9" height="11.4"/>
	<rect x="155.6" y="22.6" width="11.9" height="11.4"/>
	<rect x="143.6" y="22.6" class="st0" width="12" height="11.4"/>
	<rect x="131.7" y="22.6" class="st0" width="11.9" height="11.4"/>
	<rect x="119.7" y="22.6" class="st0" width="11.9" height="11.4"/>
	<rect x="107.7" y="22.6" width="11.9" height="11.4"/>
	<rect x="95.8" y="22.6" class="st1" width="11.9" height="11.4"/>
	<rect x="83.8" y="22.6" class="st1" width="11.9" height="11.4"/>
	<rect x="71.8" y="22.6" width="12" height="11.4"/>
	<rect x="143.6" y="11.3" width="12" height="11.4"/>
	<rect x="131.7" y="11.3" width="11.9" height="11.4"/>
	<rect x="119.7" y="11.3" width="11.9" height="11.4"/>
	<rect x="107.7" y="11.3" class="st1" width="11.9" height="11.4"/>
	<rect x="95.8" y="11.3" class="st1" width="11.9" height="11.4"/>
	<rect x="119.7" width="11.9" height="11.4"/>
	<rect x="107.7" width="11.9" height="11.4"/>
	<rect x="95.8" width="11.9" height="11.4"/>
	<rect x="83.8" y="11.3" width="11.9" height="11.4"/>
</g>
</svg>
