<?xml version="1.0" encoding="utf-8"?>
<!-- Generator: Adobe Illustrator 25.2.1, SVG Export Plug-In . SVG Version: 6.00 Build 0)  -->
<svg version="1.1" id="Calque_1" xmlns="http://www.w3.org/2000/svg" xmlns:xlink="http://www.w3.org/1999/xlink" x="0px" y="0px"
	 viewBox="0 0 175.2 175.3" style="enable-background:new 0 0 175.2 175.3;" xml:space="preserve">
<style type="text/css">
	.st0{fill:#C47A38;}
	.st1{fill:#F2EAC4;}
</style>
<g>
	<rect x="67.4" class="st0" width="13.5" height="13.5"/>
	<rect x="80.9" class="st0" width="13.5" height="13.5"/>
	<rect x="94.3" class="st0" width="13.5" height="13.5"/>
	<rect x="53.9" y="13.5" class="st0" width="13.5" height="13.5"/>
	<rect x="67.4" y="13.5" class="st0" width="13.5" height="13.5"/>
	<rect x="80.9" y="13.5" class="st0" width="13.5" height="13.5"/>
	<rect x="94.3" y="13.5" class="st0" width="13.5" height="13.5"/>
	<rect x="107.8" y="13.5" class="st0" width="13.5" height="13.5"/>
	<rect x="40.4" y="27" class="st0" width="13.5" height="13.5"/>
	<rect x="53.9" y="27" class="st0" width="13.5" height="13.5"/>
	<rect x="67.4" y="27" class="st0" width="13.5" height="13.5"/>
	<rect x="80.9" y="27" class="st0" width="13.5" height="13.5"/>
	<rect x="94.3" y="27" class="st0" width="13.5" height="13.5"/>
	<rect x="107.8" y="27" class="st0" width="13.5" height="13.5"/>
	<rect x="121.3" y="27" class="st0" width="13.5" height="13.5"/>
	<rect x="27" y="40.5" class="st0" width="13.5" height="13.5"/>
	<rect x="40.4" y="40.5" width="13.5" height="13.5"/>
	<rect x="53.9" y="40.5" width="13.5" height="13.5"/>
	<rect x="67.4" y="40.5" class="st0" width="13.5" height="13.5"/>
	<rect x="80.9" y="40.5" class="st0" width="13.5" height="13.5"/>
	<rect x="94.3" y="40.5" class="st0" width="13.5" height="13.5"/>
	<rect x="107.8" y="40.5" width="13.5" height="13.5"/>
	<rect x="121.3" y="40.5" width="13.5" height="13.5"/>
	<rect x="134.8" y="40.5" class="st0" width="13.5" height="13.5"/>
	<rect x="13.5" y="54" class="st0" width="13.5" height="13.5"/>
	<rect x="27" y="54" class="st0" width="13.5" height="13.5"/>
	<rect x="40.4" y="54" class="st1" width="13.5" height="13.5"/>
	<rect x="53.9" y="54" width="13.5" height="13.5"/>
	<rect x="67.4" y="54" width="13.5" height="13.5"/>
	<rect x="80.9" y="54" width="13.5" height="13.5"/>
	<rect x="94.3" y="54" width="13.5" height="13.5"/>
	<rect x="107.8" y="54" width="13.5" height="13.5"/>
	<rect x="121.3" y="54" class="st1" width="13.5" height="13.5"/>
	<rect x="134.8" y="54" class="st0" width="13.5" height="13.5"/>
	<rect x="148.3" y="54" class="st0" width="13.5" height="13.5"/>
	<rect x="13.5" y="67.4" class="st0" width="13.5" height="13.5"/>
	<rect x="27" y="67.4" class="st0" width="13.5" height="13.5"/>
	<rect x="40.4" y="67.4" class="st1" width="13.5" height="13.5"/>
	<rect x="53.9" y="67.4" width="13.5" height="13.5"/>
	<rect x="67.4" y="67.4" class="st1" width="13.5" height="13.5"/>
	<rect x="80.9" y="67.4" class="st0" width="13.5" height="13.5"/>
	<rect x="94.3" y="67.4" class="st1" width="13.5" height="13.5"/>
	<rect x="107.8" y="67.4" width="13.5" height="13.5"/>
	<rect x="121.3" y="67.4" class="st1" width="13.5" height="13.5"/>
	<rect x="134.8" y="67.4" class="st0" width="13.5" height="13.5"/>
	<rect x="148.3" y="67.4" class="st0" width="13.5" height="13.5"/>
	<rect y="80.9" class="st0" width="13.5" height="13.5"/>
	<rect x="13.5" y="80.9" class="st0" width="13.5" height="13.5"/>
	<rect x="27" y="80.9" class="st0" width="13.5" height="13.5"/>
	<rect x="40.4" y="80.9" class="st1" width="13.5" height="13.5"/>
	<rect x="53.9" y="80.9" class="st1" width="13.5" height="13.5"/>
	<rect x="67.4" y="80.9" class="st1" width="13.5" height="13.5"/>
	<rect x="80.9" y="80.9" class="st0" width="13.5" height="13.5"/>
	<rect x="94.3" y="80.9" class="st1" width="13.5" height="13.5"/>
	<rect x="107.8" y="80.9" class="st1" width="13.5" height="13.5"/>
	<rect x="121.3" y="80.9" class="st1" width="13.5" height="13.5"/>
	<rect x="134.8" y="80.9" class="st0" width="13.5" height="13.5"/>
	<rect x="148.3" y="80.9" class="st0" width="13.5" height="13.5"/>
	<rect x="161.7" y="80.9" class="st0" width="13.5" height="13.5"/>
	<rect y="94.4" class="st0" width="13.5" height="13.5"/>
	<rect x="13.5" y="94.4" class="st0" width="13.5" height="13.5"/>
	<rect x="27" y="94.4" class="st0" width="13.5" height="13.5"/>
	<rect x="40.4" y="94.4" class="st0" width="13.5" height="13.5"/>
	<rect x="53.9" y="94.4" class="st0" width="13.5" height="13.5"/>
	<rect x="67.4" y="94.4" class="st0" width="13.5" height="13.5"/>
	<rect x="80.9" y="94.4" class="st0" width="13.5" height="13.5"/>
	<rect x="94.3" y="94.4" class="st0" width="13.5" height="13.5"/>
	<rect x="107.8" y="94.4" class="st0" width="13.5" height="13.5"/>
	<rect x="121.3" y="94.4" class="st0" width="13.5" height="13.5"/>
	<rect x="134.8" y="94.4" class="st0" width="13.5" height="13.5"/>
	<rect x="148.3" y="94.4" class="st0" width="13.5" height="13.5"/>
	<rect x="161.7" y="94.4" class="st0" width="13.5" height="13.5"/>
	<rect x="13.5" y="107.9" class="st0" width="13.5" height="13.5"/>
	<rect x="27" y="107.9" class="st0" width="13.5" height="13.5"/>
	<rect x="40.4" y="107.9" class="st0" width="13.5" height="13.5"/>
	<rect x="53.9" y="107.9" class="st1" width="13.5" height="13.5"/>
	<rect x="67.4" y="107.9" class="st1" width="13.5" height="13.5"/>
	<rect x="80.9" y="107.9" class="st1" width="13.5" height="13.5"/>
	<rect x="94.3" y="107.9" class="st1" width="13.5" height="13.5"/>
	<rect x="107.8" y="107.9" class="st1" width="13.5" height="13.5"/>
	<rect x="121.3" y="107.9" class="st0" width="13.5" height="13.5"/>
	<rect x="134.8" y="107.9" class="st0" width="13.5" height="13.5"/>
	<rect x="148.3" y="107.9" class="st0" width="13.5" height="13.5"/>
	<rect x="13.5" y="121.4" width="13.5" height="13.5"/>
	<rect x="27" y="121.4" width="13.5" height="13.5"/>
	<rect x="40.4" y="121.4" class="st1" width="13.5" height="13.5"/>
	<rect x="53.9" y="121.4" class="st1" width="13.5" height="13.5"/>
	<rect x="67.4" y="121.4" class="st1" width="13.5" height="13.5"/>
	<rect x="80.9" y="121.4" class="st1" width="13.5" height="13.5"/>
	<rect x="94.3" y="121.4" class="st1" width="13.5" height="13.5"/>
	<rect x="107.8" y="121.4" class="st1" width="13.5" height="13.5"/>
	<rect x="121.3" y="121.4" width="13.5" height="13.5"/>
	<rect y="134.9" width="13.5" height="13.5"/>
	<rect x="13.5" y="134.9" width="13.5" height="13.5"/>
	<rect x="27" y="134.9" width="13.5" height="13.5"/>
	<rect x="40.4" y="134.9" width="13.5" height="13.5"/>
	<rect x="53.9" y="134.9" width="13.5" height="13.5"/>
	<rect x="67.4" y="134.9" class="st1" width="13.5" height="13.5"/>
	<rect x="80.9" y="134.9" class="st1" width="13.5" height="13.5"/>
	<rect x="94.3" y="134.9" class="st1" width="13.5" height="13.5"/>
	<rect x="107.8" y="134.9" class="st1" width="13.5" height="13.5"/>
	<rect x="121.3" y="134.9" width="13.5" height="13.5"/>
	<rect x="134.8" y="134.9" width="13.5" height="13.5"/>
	<rect y="148.4" width="13.5" height="13.5"/>
	<rect x="13.5" y="148.4" width="13.5" height="13.5"/>
	<rect x="27" y="148.4" width="13.5" height="13.5"/>
	<rect x="40.4" y="148.4" width="13.5" height="13.5"/>
	<rect x="53.9" y="148.4" width="13.5" height="13.5"/>
	<rect x="67.4" y="148.4" width="13.5" height="13.5"/>
	<rect x="80.9" y="148.4" class="st1" width="13.5" height="13.5"/>
	<rect x="94.3" y="148.4" class="st1" width="13.5" height="13.5"/>
	<rect x="107.8" y="148.4" width="13.5" height="13.5"/>
	<rect x="121.3" y="148.4" width="13.5" height="13.5"/>
	<rect x="134.8" y="148.4" width="13.5" height="13.5"/>
	<rect x="13.5" y="161.9" width="13.5" height="13.5"/>
	<rect x="27" y="161.9" width="13.5" height="13.5"/>
	<rect x="40.4" y="161.9" width="13.5" height="13.5"/>
	<rect x="53.9" y="161.9" width="13.5" height="13.5"/>
	<rect x="67.4" y="161.9" width="13.5" height="13.5"/>
	<rect x="80.9" y="161.9" class="st1" width="13.5" height="13.5"/>
	<rect x="94.3" y="161.9" width="13.5" height="13.5"/>
	<rect x="107.8" y="161.9" width="13.5" height="13.5"/>
	<rect x="121.3" y="161.9" width="13.5" height="13.5"/>
</g>
</svg>
