<?xml version="1.0" encoding="utf-8"?>
<!-- Generator: Adobe Illustrator 25.2.1, SVG Export Plug-In . SVG Version: 6.00 Build 0)  -->
<svg version="1.1" id="Calque_1" xmlns="http://www.w3.org/2000/svg" xmlns:xlink="http://www.w3.org/1999/xlink" x="0px" y="0px"
	 viewBox="0 0 50 70" style="enable-background:new 0 0 50 70;" xml:space="preserve">
<g>
	<path d="M49.9,23.4L49.9,23.4C50,23.3,50,23.1,50,23C50,10.3,38.8,0,25,0S0,10.3,0,23l0,0c0,0,0,0.1,0,0.1c0,0.1,0,0.2,0.1,0.3
		c0,0,0,0.1,0,0.1c0.1,0.1,0.1,0.2,0.2,0.3l0,0L19,39.5v7.1c0,0.3,0.1,0.6,0.4,0.8l2.6,2v1.8c-1.7,1.8-2.8,4.1-3,6.6
		c0,0.1,0,0.1,0,0.2v6l0,0c0,3.3,2.7,6,6,6s6-2.7,6-6l0,0v-6c0-0.1,0-0.1,0-0.2c-0.2-2.5-1.3-4.8-3-6.6v-1.8l2.6-2
		c0.2-0.2,0.4-0.5,0.4-0.8v-7.1l18.6-15.7l0,0C49.8,23.7,49.9,23.5,49.9,23.4z M47.9,21.3c-3.1-1.4-6.7-1.5-9.8-0.1
		c0.1-4.1-0.6-13.7-8.2-18.7C39.7,4.4,47.1,12,47.9,21.3L47.9,21.3z M29.3,38.1L27.4,40h-0.5c-0.2-0.8-0.6-1.6-1.1-2.3
		c-0.3-0.4-1-0.5-1.4-0.2c-0.1,0.1-0.1,0.1-0.2,0.2c-0.5,0.7-0.9,1.5-1.1,2.3h-0.5l-1.9-1.9l-6.4-14.7c3.2-1.7,7.1-1.6,10.2,0.4l0,0
		h0.1h0.1h0.1h0.1L25,24l0,0h0.2h0h0.2h0.1c0,0,0.1,0,0.1-0.1l0,0c3.1-2,7-2.1,10.2-0.4L29.3,38.1z M24,2.7v18.6
		c-3.2-1.5-6.9-1.4-10.1,0.1C13.7,17.4,14.2,6.6,24,2.7z M26,21.3V2.7c9.8,3.9,10.3,14.7,10.1,18.7C32.9,19.9,29.2,19.8,26,21.3z
		 M20.1,2.5c-7.6,5.1-8.3,14.7-8.2,18.8c-3.1-1.4-6.7-1.4-9.8,0.1C2.9,12,10.3,4.5,20.1,2.5z M2.8,23.2c3-1.4,6.6-1.2,9.4,0.5
		l5.2,11.8L2.8,23.2z M29,63h-8v-4h8V63z M25,68c-1.8,0-3.4-1.2-3.9-3h7.7C28.4,66.8,26.8,68,25,68z M29,46.1l-2.6,2
		c-0.2,0.2-0.4,0.5-0.4,0.8v2.7c0,0.3,0.1,0.5,0.3,0.7c1.3,1.3,2.2,2.9,2.5,4.7h-7.7c0.4-1.8,1.3-3.4,2.5-4.7
		c0.2-0.2,0.3-0.5,0.3-0.7v-2.7c0-0.3-0.1-0.6-0.4-0.8l-2.6-2v-4.9l0.5,0.5c0.2,0.2,0.4,0.3,0.7,0.3h0.7c0,1.5,0.5,2.9,1.3,4.1
		c0.3,0.4,1,0.5,1.4,0.2c0.1-0.1,0.1-0.1,0.2-0.2c0.8-1.2,1.3-2.6,1.3-4.1h0.7c0.3,0,0.5-0.1,0.7-0.3l0.5-0.5V46.1z M32.6,35.5
		l5.2-11.8c2.9-1.7,6.4-1.9,9.4-0.5L32.6,35.5z"/>
</g>
</svg>
