<?xml version="1.0" encoding="utf-8"?>
<!-- Generator: Adobe Illustrator 25.2.1, SVG Export Plug-In . SVG Version: 6.00 Build 0)  -->
<svg version="1.1" id="Calque_1" xmlns="http://www.w3.org/2000/svg" xmlns:xlink="http://www.w3.org/1999/xlink" x="0px" y="0px"
	 viewBox="0 0 194 272.8" style="enable-background:new 0 0 194 272.8;" xml:space="preserve">
<style type="text/css">
	.st0{fill:#484850;}
	.st1{fill:#B0B0B0;}
	.st2{fill:#F8F8F8;}
	.st3{fill:#283080;}
	.st4{fill:#8888F8;}
	.st5{fill:#C07038;}
	.st6{fill:#784828;}
	.st7{fill:#F8C8C8;}
	.st8{fill:#C08868;}
</style>
<g>
	<rect x="35.3" y="264" width="8.8" height="8.8"/>
	<rect x="44.1" y="264" width="8.8" height="8.8"/>
	<rect x="52.9" y="264" class="st0" width="8.8" height="8.8"/>
	<rect x="17.6" y="255.2" width="8.8" height="8.8"/>
	<rect x="26.5" y="255.2" width="8.8" height="8.8"/>
	<rect x="35.3" y="255.2" class="st1" width="8.8" height="8.8"/>
	<rect x="44.1" y="255.2" class="st1" width="8.8" height="8.8"/>
	<rect x="52.9" y="255.2" width="8.8" height="8.8"/>
	<rect x="8.8" y="246.4" width="8.8" height="8.8"/>
	<rect x="17.6" y="246.4" class="st1" width="8.8" height="8.8"/>
	<rect x="26.5" y="246.4" class="st2" width="8.8" height="8.8"/>
	<rect x="35.3" y="246.4" class="st2" width="8.8" height="8.8"/>
	<rect x="44.1" y="246.4" class="st1" width="8.8" height="8.8"/>
	<rect x="52.9" y="246.4" width="8.8" height="8.8"/>
	<rect y="237.6" width="8.8" height="8.8"/>
	<rect x="8.8" y="237.6" class="st2" width="8.8" height="8.8"/>
	<rect x="17.6" y="237.6" class="st2" width="8.8" height="8.8"/>
	<rect x="26.5" y="237.6" width="8.8" height="8.8"/>
	<rect x="35.3" y="237.6" width="8.8" height="8.8"/>
	<rect x="44.1" y="237.6" width="8.8" height="8.8"/>
	<rect x="52.9" y="237.6" width="8.8" height="8.8"/>
	<rect y="228.8" class="st0" width="8.8" height="8.8"/>
	<rect x="8.8" y="228.8" width="8.8" height="8.8"/>
	<rect x="17.6" y="228.8" class="st0" width="8.8" height="8.8"/>
	<rect x="35.3" y="228.8" width="8.8" height="8.8"/>
	<rect x="44.1" y="228.8" width="8.8" height="8.8"/>
	<rect x="52.9" y="228.8" width="8.8" height="8.8"/>
	<rect x="61.7" y="228.8" width="8.8" height="8.8"/>
	<rect x="158.7" y="228.8" width="8.8" height="8.8"/>
	<rect x="44.1" y="220" class="st0" width="8.8" height="8.8"/>
	<rect x="52.9" y="220" width="8.8" height="8.8"/>
	<rect x="61.7" y="220" width="8.8" height="8.8"/>
	<rect x="149.9" y="220" width="8.8" height="8.8"/>
	<rect x="158.7" y="220" class="st1" width="8.8" height="8.8"/>
	<rect x="167.5" y="220" width="8.8" height="8.8"/>
	<rect x="44.1" y="211.2" class="st0" width="8.8" height="8.8"/>
	<rect x="52.9" y="211.2" width="8.8" height="8.8"/>
	<rect x="61.7" y="211.2" width="8.8" height="8.8"/>
	<rect x="70.5" y="211.2" width="8.8" height="8.8"/>
	<rect x="149.9" y="211.2" width="8.8" height="8.8"/>
	<rect x="158.7" y="211.2" class="st1" width="8.8" height="8.8"/>
	<rect x="167.5" y="211.2" width="8.8" height="8.8"/>
	<rect x="44.1" y="202.4" class="st0" width="8.8" height="8.8"/>
	<rect x="52.9" y="202.4" width="8.8" height="8.8"/>
	<rect x="61.7" y="202.4" width="8.8" height="8.8"/>
	<rect x="70.5" y="202.4" class="st3" width="8.8" height="8.8"/>
	<rect x="79.4" y="202.4" width="8.8" height="8.8"/>
	<rect x="88.2" y="202.4" width="8.8" height="8.8"/>
	<rect x="97" y="202.4" width="8.8" height="8.8"/>
	<rect x="141.1" y="202.4" width="8.8" height="8.8"/>
	<rect x="149.9" y="202.4" class="st1" width="8.8" height="8.8"/>
	<rect x="158.7" y="202.4" class="st1" width="8.8" height="8.8"/>
	<rect x="167.5" y="202.4" width="8.8" height="8.8"/>
	<rect x="44.1" y="193.6" width="8.8" height="8.8"/>
	<rect x="52.9" y="193.6" class="st4" width="8.8" height="8.8"/>
	<rect x="61.7" y="193.6" class="st4" width="8.8" height="8.8"/>
	<rect x="70.5" y="193.6" class="st3" width="8.8" height="8.8"/>
	<rect x="79.4" y="193.6" class="st3" width="8.8" height="8.8"/>
	<rect x="88.2" y="193.6" width="8.8" height="8.8"/>
	<rect x="97" y="193.6" width="8.8" height="8.8"/>
	<rect x="105.8" y="193.6" width="8.8" height="8.8"/>
	<rect x="114.6" y="193.6" width="8.8" height="8.8"/>
	<rect x="123.4" y="193.6" width="8.8" height="8.8"/>
	<rect x="132.3" y="193.6" width="8.8" height="8.8"/>
	<rect x="141.1" y="193.6" class="st1" width="8.8" height="8.8"/>
	<rect x="149.9" y="193.6" class="st1" width="8.8" height="8.8"/>
	<rect x="158.7" y="193.6" width="8.8" height="8.8"/>
	<rect x="44.1" y="184.8" width="8.8" height="8.8"/>
	<rect x="52.9" y="184.8" class="st4" width="8.8" height="8.8"/>
	<rect x="61.7" y="184.8" class="st4" width="8.8" height="8.8"/>
	<rect x="70.5" y="184.8" class="st3" width="8.8" height="8.8"/>
	<rect x="79.4" y="184.8" width="8.8" height="8.8"/>
	<rect x="88.2" y="184.8" class="st3" width="8.8" height="8.8"/>
	<rect x="97" y="184.8" width="8.8" height="8.8"/>
	<rect x="105.8" y="184.8" width="8.8" height="8.8"/>
	<rect x="114.6" y="184.8" width="8.8" height="8.8"/>
	<rect x="123.4" y="184.8" width="8.8" height="8.8"/>
	<rect x="132.3" y="184.8" width="8.8" height="8.8"/>
	<rect x="141.1" y="184.8" class="st4" width="8.8" height="8.8"/>
	<rect x="149.9" y="184.8" class="st1" width="8.8" height="8.8"/>
	<rect x="158.7" y="184.8" width="8.8" height="8.8"/>
	<rect x="44.1" y="176" width="8.8" height="8.8"/>
	<rect x="52.9" y="176" class="st4" width="8.8" height="8.8"/>
	<rect x="61.7" y="176" class="st4" width="8.8" height="8.8"/>
	<rect x="70.5" y="176" class="st4" width="8.8" height="8.8"/>
	<rect x="79.4" y="176" class="st3" width="8.8" height="8.8"/>
	<rect x="88.2" y="176" class="st3" width="8.8" height="8.8"/>
	<rect x="97" y="176" class="st3" width="8.8" height="8.8"/>
	<rect x="105.8" y="176" class="st3" width="8.8" height="8.8"/>
	<rect x="114.6" y="176" width="8.8" height="8.8"/>
	<rect x="123.4" y="176" width="8.8" height="8.8"/>
	<rect x="132.3" y="176" width="8.8" height="8.8"/>
	<rect x="141.1" y="176" width="8.8" height="8.8"/>
	<rect x="149.9" y="176" width="8.8" height="8.8"/>
	<rect x="44.1" y="167.2" class="st0" width="8.8" height="8.8"/>
	<rect x="52.9" y="167.2" class="st3" width="8.8" height="8.8"/>
	<rect x="61.7" y="167.2" class="st4" width="8.8" height="8.8"/>
	<rect x="70.5" y="167.2" class="st4" width="8.8" height="8.8"/>
	<rect x="79.4" y="167.2" class="st4" width="8.8" height="8.8"/>
	<rect x="88.2" y="167.2" class="st4" width="8.8" height="8.8"/>
	<rect x="97" y="167.2" class="st3" width="8.8" height="8.8"/>
	<rect x="105.8" y="167.2" class="st3" width="8.8" height="8.8"/>
	<rect x="114.6" y="167.2" class="st3" width="8.8" height="8.8"/>
	<rect x="123.4" y="167.2" width="8.8" height="8.8"/>
	<rect x="167.5" y="167.2" width="8.8" height="8.8"/>
	<rect x="176.4" y="167.2" width="8.8" height="8.8"/>
	<rect x="52.9" y="158.4" width="8.8" height="8.8"/>
	<rect x="61.7" y="158.4" class="st3" width="8.8" height="8.8"/>
	<rect x="70.5" y="158.4" class="st4" width="8.8" height="8.8"/>
	<rect x="79.4" y="158.4" class="st4" width="8.8" height="8.8"/>
	<rect x="88.2" y="158.4" class="st4" width="8.8" height="8.8"/>
	<rect x="97" y="158.4" class="st4" width="8.8" height="8.8"/>
	<rect x="105.8" y="158.4" class="st4" width="8.8" height="8.8"/>
	<rect x="114.6" y="158.4" class="st3" width="8.8" height="8.8"/>
	<rect x="123.4" y="158.4" class="st3" width="8.8" height="8.8"/>
	<rect x="132.3" y="158.4" width="8.8" height="8.8"/>
	<rect x="149.9" y="158.4" width="8.8" height="8.8"/>
	<rect x="158.7" y="158.4" width="8.8" height="8.8"/>
	<rect x="167.5" y="158.4" class="st5" width="8.8" height="8.8"/>
	<rect x="176.4" y="158.4" class="st5" width="8.8" height="8.8"/>
	<rect x="185.2" y="158.4" width="8.8" height="8.8"/>
	<rect x="52.9" y="149.6" width="8.8" height="8.8"/>
	<rect x="61.7" y="149.6" width="8.8" height="8.8"/>
	<rect x="70.5" y="149.6" class="st3" width="8.8" height="8.8"/>
	<rect x="79.4" y="149.6" class="st4" width="8.8" height="8.8"/>
	<rect x="88.2" y="149.6" class="st4" width="8.8" height="8.8"/>
	<rect x="97" y="149.6" class="st4" width="8.8" height="8.8"/>
	<rect x="105.8" y="149.6" class="st4" width="8.8" height="8.8"/>
	<rect x="114.6" y="149.6" class="st4" width="8.8" height="8.8"/>
	<rect x="123.4" y="149.6" class="st3" width="8.8" height="8.8"/>
	<rect x="132.3" y="149.6" width="8.8" height="8.8"/>
	<rect x="141.1" y="149.6" width="8.8" height="8.8"/>
	<rect x="149.9" y="149.6" class="st6" width="8.8" height="8.8"/>
	<rect x="158.7" y="149.6" class="st5" width="8.8" height="8.8"/>
	<rect x="167.5" y="149.6" class="st6" width="8.8" height="8.8"/>
	<rect x="176.4" y="149.6" width="8.8" height="8.8"/>
	<rect x="52.9" y="140.8" width="8.8" height="8.8"/>
	<rect x="61.7" y="140.8" class="st3" width="8.8" height="8.8"/>
	<rect x="70.5" y="140.8" width="8.8" height="8.8"/>
	<rect x="79.4" y="140.8" width="8.8" height="8.8"/>
	<rect x="88.2" y="140.8" class="st4" width="8.8" height="8.8"/>
	<rect x="97" y="140.8" class="st4" width="8.8" height="8.8"/>
	<rect x="105.8" y="140.8" class="st4" width="8.8" height="8.8"/>
	<rect x="114.6" y="140.8" width="8.8" height="8.8"/>
	<rect x="123.4" y="140.8" width="8.8" height="8.8"/>
	<rect x="132.3" y="140.8" class="st6" width="8.8" height="8.8"/>
	<rect x="141.1" y="140.8" class="st5" width="8.8" height="8.8"/>
	<rect x="149.9" y="140.8" class="st6" width="8.8" height="8.8"/>
	<rect x="158.7" y="140.8" width="8.8" height="8.8"/>
	<rect x="167.5" y="140.8" width="8.8" height="8.8"/>
	<rect x="52.9" y="132" width="8.8" height="8.8"/>
	<rect x="61.7" y="132" class="st4" width="8.8" height="8.8"/>
	<rect x="70.5" y="132" width="8.8" height="8.8"/>
	<rect x="79.4" y="132" class="st3" width="8.8" height="8.8"/>
	<rect x="88.2" y="132" width="8.8" height="8.8"/>
	<rect x="97" y="132" width="8.8" height="8.8"/>
	<rect x="105.8" y="132" width="8.8" height="8.8"/>
	<rect x="114.6" y="132" class="st6" width="8.8" height="8.8"/>
	<rect x="123.4" y="132" class="st6" width="8.8" height="8.8"/>
	<rect x="132.3" y="132" class="st6" width="8.8" height="8.8"/>
	<rect x="141.1" y="132" width="8.8" height="8.8"/>
	<rect x="149.9" y="132" width="8.8" height="8.8"/>
	<rect x="61.7" y="123.2" width="8.8" height="8.8"/>
	<rect x="70.5" y="123.2" width="8.8" height="8.8"/>
	<rect x="79.4" y="123.2" width="8.8" height="8.8"/>
	<rect x="88.2" y="123.2" width="8.8" height="8.8"/>
	<rect x="97" y="123.2" width="8.8" height="8.8"/>
	<rect x="105.8" y="123.2" width="8.8" height="8.8"/>
	<rect x="114.6" y="123.2" class="st7" width="8.8" height="8.8"/>
	<rect x="123.4" y="123.2" class="st7" width="8.8" height="8.8"/>
	<rect x="132.3" y="123.2" width="8.8" height="8.8"/>
	<rect x="52.9" y="114.4" width="8.8" height="8.8"/>
	<rect x="61.7" y="114.4" width="8.8" height="8.8"/>
	<rect x="70.5" y="114.4" class="st3" width="8.8" height="8.8"/>
	<rect x="79.4" y="114.4" width="8.8" height="8.8"/>
	<rect x="88.2" y="114.4" width="8.8" height="8.8"/>
	<rect x="97" y="114.4" width="8.8" height="8.8"/>
	<rect x="105.8" y="114.4" class="st7" width="8.8" height="8.8"/>
	<rect x="114.6" y="114.4" class="st7" width="8.8" height="8.8"/>
	<rect x="123.4" y="114.4" class="st7" width="8.8" height="8.8"/>
	<rect x="132.3" y="114.4" width="8.8" height="8.8"/>
	<rect x="26.5" y="105.6" width="8.8" height="8.8"/>
	<rect x="35.3" y="105.6" width="8.8" height="8.8"/>
	<rect x="44.1" y="105.6" width="8.8" height="8.8"/>
	<rect x="52.9" y="105.6" class="st7" width="8.8" height="8.8"/>
	<rect x="61.7" y="105.6" class="st4" width="8.8" height="8.8"/>
	<rect x="70.5" y="105.6" width="8.8" height="8.8"/>
	<rect x="79.4" y="105.6" width="8.8" height="8.8"/>
	<rect x="88.2" y="105.6" class="st0" width="8.8" height="8.8"/>
	<rect x="97" y="105.6" class="st1" width="8.8" height="8.8"/>
	<rect x="105.8" y="105.6" width="8.8" height="8.8"/>
	<rect x="114.6" y="105.6" class="st7" width="8.8" height="8.8"/>
	<rect x="123.4" y="105.6" width="8.8" height="8.8"/>
	<rect x="132.3" y="105.6" width="8.8" height="8.8"/>
	<rect x="17.6" y="96.8" width="8.8" height="8.8"/>
	<rect x="26.5" y="96.8" width="8.8" height="8.8"/>
	<rect x="35.3" y="96.8" width="8.8" height="8.8"/>
	<rect x="44.1" y="96.8" width="8.8" height="8.8"/>
	<rect x="52.9" y="96.8" class="st7" width="8.8" height="8.8"/>
	<rect x="61.7" y="96.8" class="st7" width="8.8" height="8.8"/>
	<rect x="70.5" y="96.8" class="st7" width="8.8" height="8.8"/>
	<rect x="79.4" y="96.8" class="st0" width="8.8" height="8.8"/>
	<rect x="88.2" y="96.8" class="st3" width="8.8" height="8.8"/>
	<rect x="97" y="96.8" class="st3" width="8.8" height="8.8"/>
	<rect x="105.8" y="96.8" class="st4" width="8.8" height="8.8"/>
	<rect x="114.6" y="96.8" width="8.8" height="8.8"/>
	<rect x="123.4" y="96.8" width="8.8" height="8.8"/>
	<rect x="132.3" y="96.8" width="8.8" height="8.8"/>
	<rect x="141.1" y="96.8" width="8.8" height="8.8"/>
	<rect x="17.6" y="88" class="st7" width="8.8" height="8.8"/>
	<rect x="26.5" y="88" class="st0" width="8.8" height="8.8"/>
	<rect x="35.3" y="88" width="8.8" height="8.8"/>
	<rect x="44.1" y="88" width="8.8" height="8.8"/>
	<rect x="52.9" y="88" width="8.8" height="8.8"/>
	<rect x="61.7" y="88" class="st7" width="8.8" height="8.8"/>
	<rect x="70.5" y="88" width="8.8" height="8.8"/>
	<rect x="79.4" y="88" class="st3" width="8.8" height="8.8"/>
	<rect x="88.2" y="88" class="st4" width="8.8" height="8.8"/>
	<rect x="97" y="88" width="8.8" height="8.8"/>
	<rect x="105.8" y="88" width="8.8" height="8.8"/>
	<rect x="114.6" y="88" class="st3" width="8.8" height="8.8"/>
	<rect x="123.4" y="88" width="8.8" height="8.8"/>
	<rect x="132.3" y="88" width="8.8" height="8.8"/>
	<rect x="141.1" y="88" width="8.8" height="8.8"/>
	<rect x="17.6" y="79.2" class="st7" width="8.8" height="8.8"/>
	<rect x="26.5" y="79.2" class="st7" width="8.8" height="8.8"/>
	<rect x="35.3" y="79.2" class="st8" width="8.8" height="8.8"/>
	<rect x="44.1" y="79.2" width="8.8" height="8.8"/>
	<rect x="52.9" y="79.2" class="st3" width="8.8" height="8.8"/>
	<rect x="61.7" y="79.2" width="8.8" height="8.8"/>
	<rect x="70.5" y="79.2" class="st4" width="8.8" height="8.8"/>
	<rect x="79.4" y="79.2" class="st4" width="8.8" height="8.8"/>
	<rect x="88.2" y="79.2" class="st4" width="8.8" height="8.8"/>
	<rect x="97" y="79.2" class="st4" width="8.8" height="8.8"/>
	<rect x="105.8" y="79.2" width="8.8" height="8.8"/>
	<rect x="114.6" y="79.2" width="8.8" height="8.8"/>
	<rect x="123.4" y="79.2" width="8.8" height="8.8"/>
	<rect x="132.3" y="79.2" class="st0" width="8.8" height="8.8"/>
	<rect x="141.1" y="79.2" width="8.8" height="8.8"/>
	<rect x="149.9" y="79.2" width="8.8" height="8.8"/>
	<rect x="17.6" y="70.4" width="8.8" height="8.8"/>
	<rect x="26.5" y="70.4" class="st7" width="8.8" height="8.8"/>
	<rect x="35.3" y="70.4" width="8.8" height="8.8"/>
	<rect x="44.1" y="70.4" class="st4" width="8.8" height="8.8"/>
	<rect x="52.9" y="70.4" width="8.8" height="8.8"/>
	<rect x="61.7" y="70.4" class="st7" width="8.8" height="8.8"/>
	<rect x="70.5" y="70.4" class="st3" width="8.8" height="8.8"/>
	<rect x="79.4" y="70.4" class="st4" width="8.8" height="8.8"/>
	<rect x="88.2" y="70.4" class="st4" width="8.8" height="8.8"/>
	<rect x="97" y="70.4" width="8.8" height="8.8"/>
	<rect x="105.8" y="70.4" class="st8" width="8.8" height="8.8"/>
	<rect x="114.6" y="70.4" class="st8" width="8.8" height="8.8"/>
	<rect x="123.4" y="70.4" class="st0" width="8.8" height="8.8"/>
	<rect x="132.3" y="70.4" class="st0" width="8.8" height="8.8"/>
	<rect x="141.1" y="70.4" width="8.8" height="8.8"/>
	<rect x="149.9" y="70.4" width="8.8" height="8.8"/>
	<rect x="17.6" y="61.6" width="8.8" height="8.8"/>
	<rect x="26.5" y="61.6" class="st8" width="8.8" height="8.8"/>
	<rect x="35.3" y="61.6" width="8.8" height="8.8"/>
	<rect x="44.1" y="61.6" width="8.8" height="8.8"/>
	<rect x="52.9" y="61.6" class="st8" width="8.8" height="8.8"/>
	<rect x="61.7" y="61.6" class="st7" width="8.8" height="8.8"/>
	<rect x="70.5" y="61.6" width="8.8" height="8.8"/>
	<rect x="79.4" y="61.6" class="st4" width="8.8" height="8.8"/>
	<rect x="88.2" y="61.6" width="8.8" height="8.8"/>
	<rect x="97" y="61.6" class="st8" width="8.8" height="8.8"/>
	<rect x="105.8" y="61.6" class="st7" width="8.8" height="8.8"/>
	<rect x="114.6" y="61.6" class="st7" width="8.8" height="8.8"/>
	<rect x="123.4" y="61.6" class="st2" width="8.8" height="8.8"/>
	<rect x="132.3" y="61.6" class="st7" width="8.8" height="8.8"/>
	<rect x="141.1" y="61.6" class="st8" width="8.8" height="8.8"/>
	<rect x="149.9" y="61.6" width="8.8" height="8.8"/>
	<rect x="17.6" y="52.8" width="8.8" height="8.8"/>
	<rect x="26.5" y="52.8" width="8.8" height="8.8"/>
	<rect x="35.3" y="52.8" class="st3" width="8.8" height="8.8"/>
	<rect x="44.1" y="52.8" width="8.8" height="8.8"/>
	<rect x="52.9" y="52.8" width="8.8" height="8.8"/>
	<rect x="61.7" y="52.8" class="st8" width="8.8" height="8.8"/>
	<rect x="70.5" y="52.8" width="8.8" height="8.8"/>
	<rect x="79.4" y="52.8" class="st4" width="8.8" height="8.8"/>
	<rect x="88.2" y="52.8" width="8.8" height="8.8"/>
	<rect x="97" y="52.8" class="st7" width="8.8" height="8.8"/>
	<rect x="105.8" y="52.8" class="st2" width="8.8" height="8.8"/>
	<rect x="114.6" y="52.8" class="st2" width="8.8" height="8.8"/>
	<rect x="123.4" y="52.8" class="st8" width="8.8" height="8.8"/>
	<rect x="132.3" y="52.8" width="8.8" height="8.8"/>
	<rect x="141.1" y="52.8" width="8.8" height="8.8"/>
	<rect x="26.5" y="44" width="8.8" height="8.8"/>
	<rect x="35.3" y="44" class="st4" width="8.8" height="8.8"/>
	<rect x="44.1" y="44" class="st4" width="8.8" height="8.8"/>
	<rect x="52.9" y="44" width="8.8" height="8.8"/>
	<rect x="61.7" y="44" class="st8" width="8.8" height="8.8"/>
	<rect x="70.5" y="44" width="8.8" height="8.8"/>
	<rect x="79.4" y="44" class="st4" width="8.8" height="8.8"/>
	<rect x="88.2" y="44" class="st3" width="8.8" height="8.8"/>
	<rect x="97" y="44" class="st7" width="8.8" height="8.8"/>
	<rect x="105.8" y="44" class="st8" width="8.8" height="8.8"/>
	<rect x="114.6" y="44" width="8.8" height="8.8"/>
	<rect x="123.4" y="44" width="8.8" height="8.8"/>
	<rect x="26.5" y="35.2" class="st8" width="8.8" height="8.8"/>
	<rect x="35.3" y="35.2" class="st7" width="8.8" height="8.8"/>
	<rect x="44.1" y="35.2" width="8.8" height="8.8"/>
	<rect x="52.9" y="35.2" class="st4" width="8.8" height="8.8"/>
	<rect x="61.7" y="35.2" width="8.8" height="8.8"/>
	<rect x="70.5" y="35.2" class="st4" width="8.8" height="8.8"/>
	<rect x="79.4" y="35.2" width="8.8" height="8.8"/>
	<rect x="88.2" y="35.2" width="8.8" height="8.8"/>
	<rect x="97" y="35.2" width="8.8" height="8.8"/>
	<rect x="105.8" y="35.2" width="8.8" height="8.8"/>
	<rect x="17.6" y="26.4" width="8.8" height="8.8"/>
	<rect x="26.5" y="26.4" width="8.8" height="8.8"/>
	<rect x="35.3" y="26.4" class="st3" width="8.8" height="8.8"/>
	<rect x="44.1" y="26.4" class="st4" width="8.8" height="8.8"/>
	<rect x="52.9" y="26.4" width="8.8" height="8.8"/>
	<rect x="61.7" y="26.4" class="st3" width="8.8" height="8.8"/>
	<rect x="70.5" y="26.4" width="8.8" height="8.8"/>
	<rect x="79.4" y="26.4" width="8.8" height="8.8"/>
	<rect x="88.2" y="26.4" class="st3" width="8.8" height="8.8"/>
	<rect x="97" y="26.4" class="st3" width="8.8" height="8.8"/>
	<rect x="105.8" y="26.4" width="8.8" height="8.8"/>
	<rect x="114.6" y="26.4" width="8.8" height="8.8"/>
	<rect x="123.4" y="26.4" width="8.8" height="8.8"/>
	<rect x="17.6" y="17.6" width="8.8" height="8.8"/>
	<rect x="26.5" y="17.6" class="st4" width="8.8" height="8.8"/>
	<rect x="35.3" y="17.6" class="st2" width="8.8" height="8.8"/>
	<rect x="44.1" y="17.6" class="st4" width="8.8" height="8.8"/>
	<rect x="52.9" y="17.6" class="st4" width="8.8" height="8.8"/>
	<rect x="61.7" y="17.6" width="8.8" height="8.8"/>
	<rect x="97" y="17.6" class="st4" width="8.8" height="8.8"/>
	<rect x="105.8" y="17.6" class="st4" width="8.8" height="8.8"/>
	<rect x="114.6" y="17.6" class="st4" width="8.8" height="8.8"/>
	<rect x="123.4" y="17.6" class="st3" width="8.8" height="8.8"/>
	<rect x="132.3" y="17.6" width="8.8" height="8.8"/>
	<rect x="26.5" y="8.8" width="8.8" height="8.8"/>
	<rect x="35.3" y="8.8" class="st4" width="8.8" height="8.8"/>
	<rect x="44.1" y="8.8" class="st4" width="8.8" height="8.8"/>
	<rect x="52.9" y="8.8" class="st4" width="8.8" height="8.8"/>
	<rect x="61.7" y="8.8" class="st3" width="8.8" height="8.8"/>
	<rect x="70.5" y="8.8" width="8.8" height="8.8"/>
	<rect x="132.3" y="8.8" class="st4" width="8.8" height="8.8"/>
	<rect x="35.3" y="0" width="8.8" height="8.8"/>
	<rect x="44.1" y="0" width="8.8" height="8.8"/>
	<rect x="52.9" y="0" width="8.8" height="8.8"/>
	<rect x="61.7" y="0" width="8.8" height="8.8"/>
</g>
</svg>
