<?xml version="1.0" encoding="utf-8"?>
<!-- Generator: Adobe Illustrator 25.2.1, SVG Export Plug-In . SVG Version: 6.00 Build 0)  -->
<svg version="1.1" id="Calque_1" xmlns="http://www.w3.org/2000/svg" xmlns:xlink="http://www.w3.org/1999/xlink" x="0px" y="0px"
	 viewBox="0 0 50.7 86.1" style="enable-background:new 0 0 50.7 86.1;" xml:space="preserve">
<path d="M-24.9,68.3C-24.9,68.3-24.9,68.3-24.9,68.3C-24.9,68.3-24.9,68.3-24.9,68.3C-24.9,68.3-24.9,68.3-24.9,68.3z"/>
<path d="M-34.3,68.3C-34.3,68.3-34.3,68.3-34.3,68.3C-34.3,68.3-34.3,68.3-34.3,68.3C-34.3,68.3-34.3,68.3-34.3,68.3z"/>
<g>
	<path d="M50.7,75.1l-3-28.6c0-0.2,0-0.3,0-0.5c0-0.2,0-0.4-0.1-0.5c-0.4-2.4-2.5-4.8-4.8-7.4c-2.5-2.9-5.3-6.2-5.3-9
		c0-0.3,0-0.5,0-0.8v-2c2.5-0.5,4.4-2.7,4.4-5.3c0-3-2.4-5.4-5.4-5.4h-4.6c0-0.3,0.1-0.6,0.1-0.9c0-2.7-2.2-4.9-4.9-4.9
		c-2.7,0-4.9,2.2-4.9,4.9c0,0.3,0,0.6,0.1,0.9h-7.6c-3,0-5.4,2.4-5.4,5.4c0,2.6,1.9,4.8,4.4,5.3v2.8c0,2.9-2.8,6.2-5.3,9
		c-1.7,2-3.4,3.9-4.2,5.8c-0.4,0.8-0.6,1.7-0.6,2.6l-3,28.6c0,0.1,0,0.1,0,0.2c0,4,5.3,10.8,25.2,10.8c19.9,0,25.2-6.8,25.2-10.8
		C50.7,75.2,50.7,75.2,50.7,75.1z M25.6,83.1c-17.9,0-22-5.6-22.1-7.7l3-28.5c0-0.1,0-0.1,0-0.2c0-0.5,0.1-0.9,0.3-1.4c0,0,0,0,0,0
		c0.7-1.5,2.2-3.2,3.8-5.1c2.9-3.3,6.1-7,6.1-11v-3.6c0-0.1,0-0.2,0-0.4c0.1-0.4-0.1-0.9-0.4-1.2c-0.3-0.3-0.7-0.5-1.1-0.5h-0.5
		c-1.3,0-2.3-1-2.3-2.3c0-1.3,1-2.3,2.3-2.3h0.9h1.5H34h1.7h0.7c1.3,0,2.3,1,2.3,2.3c0,1.3-1,2.3-2.3,2.3h-0.5
		c-0.4,0-0.9,0.2-1.1,0.5c-0.3,0.3-0.4,0.8-0.4,1.2c0,0.2,0,0.3,0,0.4v2.9c0,0,0,0,0,0.1c0,0.2,0,0.4,0,0.7c0,4,3.2,7.7,6.1,11
		c1.9,2.2,3.8,4.4,4.1,5.9c0,0,0,0.1,0,0.1c0,0,0,0.1,0,0.1c0,0.1,0,0.2,0,0.3c0,0.1,0,0.1,0,0.2l3,28.5
		C47.6,77.4,43.4,83.1,25.6,83.1z"/>
	<path d="M34.2,47.7c-2.5-2.3-5.6-3.4-8.7-3.4h0h0c-3.1,0-6.2,1.1-8.7,3.4c-3.7,3.5-5,7.7-3.8,12.7c0.5,2.2,1.6,4.1,3.1,5.7
		c1,1.1,1.7,3,1.6,4.5c0,0,0,0.1,0,0.1c0,0,0,0,0,0c0,0,0,0,0,0.1c0,0.9,0.7,1.6,1.6,1.6c0.9,0,1.6-0.7,1.6-1.6c0,0,0-0.1,0-0.1
		c0,0,0,0,0,0c0,0,0,0.1,0,0.1c0,0.9,0.7,1.6,1.6,1.6c0.9,0,1.6-0.7,1.6-1.5h0c0,0.9,0.7,1.5,1.6,1.5c0.9,0,1.6-0.7,1.6-1.5h0
		c0,0.9,0.7,1.5,1.6,1.5c0.9,0,1.6-0.7,1.6-1.6c0,0,0-0.1,0-0.1c0,0,0,0,0,0c0,0,0,0.1,0,0.1c0,0.9,0.7,1.6,1.6,1.6
		c0.8,0,1.5-0.7,1.6-1.5c0,0,0,0,0,0c0,0,0-0.4,0-0.4c0-1.6,0.6-3.3,1.6-4.4c1.5-1.6,2.6-3.5,3.1-5.7C39.2,55.4,37.9,51.1,34.2,47.7
		z M21.8,61.7c-0.6,1-1.4,1.6-2.5,1.6c-0.1,0-0.1,0-0.2,0c-1.3-0.1-2-0.8-2.6-1.9c-0.1-0.2-0.2-0.4-0.2-0.6c-0.2-0.7-0.3-1.3-0.2-2
		s0.3-1.3,0.6-1.8c0.1-0.2,0.2-0.4,0.4-0.5c0-0.1,0.1-0.1,0.1-0.2c0.1-0.1,0.2-0.2,0.3-0.3c0.3-0.3,0.7-0.5,1.2-0.6
		c0.2,0,0.4-0.1,0.6-0.1c0,0,0,0,0,0c0.1,0,0.1,0,0.2,0c0.5,0,0.9,0.2,1.3,0.5c0.1,0.1,0.2,0.2,0.3,0.2c0.1,0.1,0.2,0.2,0.3,0.3
		c0.1,0.1,0.2,0.2,0.2,0.3c0.1,0.1,0.1,0.2,0.2,0.4C22.8,58.6,22.8,60.2,21.8,61.7z M26.8,65.5c-0.6,0-1.1-0.2-1.2-0.6
		c0,0,0-0.1,0-0.1c0-0.1,0-0.1,0-0.2c0,0.1,0,0.2,0,0.2c0,0,0,0,0,0c0,0.1,0,0.1-0.1,0.1c-0.2,0.3-0.7,0.5-1.2,0.5
		c-0.8,0-1.7-0.5-1.7-1.4c0-1.3,3-2.2,3-2.2c0,0,3,0.9,3,2.2C28.5,65,27.6,65.5,26.8,65.5z M34.7,60.8c-0.1,0.2-0.1,0.4-0.2,0.6
		c-0.6,1.1-1.3,1.8-2.6,1.9c-0.1,0-0.1,0-0.2,0c-1.1,0-1.9-0.6-2.5-1.6c-0.9-1.6-0.9-3.2-0.1-4.7c0.1-0.1,0.1-0.2,0.2-0.4
		c0.1-0.1,0.2-0.2,0.2-0.3c0.1-0.1,0.2-0.2,0.3-0.3c0.1-0.1,0.2-0.2,0.3-0.2c0.4-0.3,0.8-0.4,1.3-0.5c0.1,0,0.1,0,0.2,0c0,0,0,0,0,0
		c0.2,0,0.4,0,0.6,0.1c0.5,0.1,0.9,0.3,1.2,0.6c0.1,0.1,0.2,0.2,0.3,0.3c0,0.1,0.1,0.1,0.1,0.2c0.1,0.2,0.2,0.3,0.4,0.5
		c0.3,0.6,0.5,1.2,0.6,1.8C34.9,59.5,34.8,60.1,34.7,60.8z"/>
	<circle cx="33.5" cy="7.4" r="3.6"/>
	<circle cx="27.7" cy="2.2" r="2.2"/>
</g>
</svg>
