<?xml version="1.0" encoding="utf-8"?>
<!-- Generator: Adobe Illustrator 25.2.1, SVG Export Plug-In . SVG Version: 6.00 Build 0)  -->
<svg version="1.1" id="Calque_1" xmlns="http://www.w3.org/2000/svg" xmlns:xlink="http://www.w3.org/1999/xlink" x="0px" y="0px"
	 viewBox="0 0 55.6 83.2" style="enable-background:new 0 0 55.6 83.2;" xml:space="preserve">
<style type="text/css">
	.st0{fill-rule:evenodd;clip-rule:evenodd;}
</style>
<g>
	<path d="M18.9,5.3c-1.7-0.5-4.6-0.5-6.2,0c-1.3,0.4-1.6,1.1-1.6,1.5c0,0.1,0,0.3,0.1,0.4c-0.1,0.1-0.1,0.3-0.1,0.4
		c0,0.4,0.3,1.1,1.6,1.6c0.9,0.3,2.1,0.5,3.4,0.5c1.3,0,2.5-0.2,3.3-0.5c1.2-0.5,1.4-1.1,1.4-1.5c0-0.1,0-0.2-0.1-0.4
		c0.1-0.2,0.1-0.3,0.1-0.4C20.8,6.4,20.4,5.7,18.9,5.3z M19,7.4c-1.5,0.6-4.4,0.6-6,0c-0.2-0.1-0.3-0.1-0.4-0.2
		c0.1-0.1,0.3-0.1,0.4-0.2c0.7-0.2,1.7-0.4,2.8-0.4c1.1,0,2.1,0.1,2.8,0.4c0.3,0.1,0.5,0.2,0.6,0.2C19.2,7.3,19.1,7.4,19,7.4z"/>
	<path d="M54.6,54.1c0-0.1,0.1-0.2,0.1-0.3c0.4-1.2,0.4-2.5-0.1-3.7V30.5c0.1-0.1,0.2-0.3,0.2-0.4c0.4-1,0.3-2-0.2-3V10.3
		c0.8-0.8,1.2-1.6,1.2-2.4c-0.1-3.2-5.5-5-10-6C40.6,0.6,33.9,0,27,0C20.2,0,13.7,0.6,8.8,1.8C3,3.2,0,5.1,0,7.4
		c0,0.9,0.4,1.7,1.2,2.4l0,16.6c-0.5,1-0.6,2-0.2,3C1,29.7,1.1,29.8,1.2,30l0,19.6c-0.5,1.2-0.6,2.5-0.1,3.7c0,0.1,0.1,0.2,0.1,0.3
		l0,13.6c-1.6,4.4,1.2,8.9,7.6,12c5.5,2.7,12.7,4,19.9,4c7.2,0,14.2-1.3,19.4-4c5.7-3,8-7.1,6.5-11.2C54.6,68,54.6,54.1,54.6,54.1z
		 M54.7,52.5c-0.2,0.7-0.7,1.4-1.4,2c-0.3,0.2-0.5,0.4-0.8,0.6c-0.5,0.3-1.2,0.7-1.9,1c0,0,0,0,0,0c-0.1,0-0.2,0.1-0.3,0.1v0
		c-0.7,0.3-1.4,0.6-2,0.8c-1.6,0.5-1.1,0.3-3.9,1c-0.4,0.1-0.9,0.2-1.3,0.2c-0.7,0.1-1.4,0.2-2.2,0.4c-0.7,0.1-1.5,0.2-2.2,0.3
		c-1.5,0.1-3,0.3-4.5,0.4c-1.5,0-3.1,0.1-4.6,0.1c-1.5-0.1-3-0.1-4.4-0.2c-1.4,0-2.8-0.3-4.1-0.4c-0.7-0.1-1.3-0.1-1.9-0.2
		c-0.6-0.1-1.2-0.2-1.8-0.3c-1.1-0.2-2.2-0.4-3.1-0.6c-0.9-0.2-1.7-0.5-2.3-0.6c-1.3-0.4-2-0.6-2-0.6s0.7,0.1,2.1,0.4
		c0.7,0.1,1.4,0.3,2.4,0.5c0.9,0.1,2,0.2,3.1,0.4c0.6,0.1,1.1,0.1,1.8,0.2c0.6,0,1.2,0.1,1.9,0.1c1.3,0.1,2.7,0.2,4.1,0.2
		c1.4,0,2.9,0.1,4.4,0.1c1.5-0.1,3-0.1,4.5-0.2c1.5-0.1,3-0.2,4.5-0.3c0.7,0,1.5-0.1,2.2-0.3c0.7-0.1,1.4-0.2,2.1-0.3
		c1.1-0.1,2.1-0.4,3-0.6l-0.6-20.3c1.6-0.4,3.1-0.9,4.5-1.3c0.3-0.1,0.6-0.2,0.9-0.3l-0.5,20.8c0,0,0,0,0.1,0c1-0.4,2-0.9,2.7-1.4
		c0.7-0.5,1.3-1.1,1.5-1.7c0.2-0.6,0.1-1.1,0-1.5c-0.1-0.3-0.2-0.5-0.2-0.5s0.1,0.2,0.3,0.5C54.7,51.3,54.9,51.8,54.7,52.5z
		 M18,54.1c3.1-4.9,6.2-10,9.4-15.4c0.1-0.2,0.3-0.3,0.5-0.3c0.2,0,0.4,0.1,0.5,0.3c3.1,5.4,6.3,10.5,9.4,15.4
		c0.1,0.2,0.1,0.4,0,0.5s-0.3,0.3-0.5,0.4c-6.2,1-12.5,1-18.7,0c-0.2,0-0.4-0.2-0.5-0.4C17.9,54.4,17.9,54.2,18,54.1z M54.5,27.5
		c-0.1-0.3-0.2-0.5-0.2-0.5S54.4,27.2,54.5,27.5c0.2,0.3,0.4,0.8,0.2,1.5c-0.2,0.7-0.7,1.4-1.4,2c-0.7,0.6-1.5,1.1-2.5,1.5l0,0
		c-0.5,0.2-1.1,0.4-1.6,0.6c-1.2,0.4-2.5,0.8-3.9,1.2v0c-0.7,0.2-1.5,0.4-2.3,0.5c-0.7,0.1-1.4,0.2-2.2,0.4
		c-0.7,0.1-1.5,0.2-2.2,0.3c-1.5,0.1-3,0.3-4.5,0.4c-1.5,0-3.1,0.1-4.6,0.1c-1.5-0.1-3-0.1-4.4-0.2c-1.4,0-2.8-0.3-4.1-0.4
		c-0.7-0.1-1.3-0.1-1.9-0.2c-0.6-0.1-1.2-0.2-1.8-0.3c-1.1-0.2-2.2-0.4-3.1-0.6c-0.9-0.2-1.7-0.5-2.3-0.6c-1.3-0.4-2-0.6-2-0.6
		s0.7,0.1,2.1,0.4c0.7,0.1,1.4,0.3,2.4,0.5c0.9,0.1,2,0.2,3.1,0.4c0.6,0.1,1.1,0.1,1.8,0.2c0.6,0,1.2,0.1,1.9,0.1
		c1.3,0.1,2.7,0.2,4.1,0.2c1.4,0,2.9,0.1,4.4,0.1c1.5-0.1,3-0.1,4.5-0.2c1.5-0.1,3-0.2,4.5-0.3c0.7,0,1.5-0.1,2.2-0.3
		c0.7-0.1,1.4-0.2,2.1-0.3c0.8-0.1,1.6-0.3,2.4-0.5l-0.5-19.2c1.3-0.2,2.5-0.5,3.7-0.8c1-0.3,1.9-0.6,2.8-0.9l-0.4,19.3
		c0.9-0.4,1.6-0.7,2.3-1.2c0.7-0.5,1.3-1.1,1.5-1.7C54.7,28.4,54.6,27.9,54.5,27.5z M3.2,8.9c0,0-0.4-0.3-0.6-0.5
		C2.5,8.3,2.3,8.1,2.2,7.9C2.1,7.8,2.1,7.6,2.1,7.5c0-0.7,1.5-2.3,7.2-3.7C14,2.7,20.3,2.1,27,2.1c6.7,0,13.2,0.6,18.2,1.7
		c6.5,1.5,8.4,3.2,8.4,4c0,0-0.1,0.4-0.4,0.7c-0.2,0.2-0.8,0.7-0.8,0.7c-0.9,0.6-2.4,1.3-4.7,1.9C43,12.5,36,13.3,28.7,13.3
		c-7.3,0-14.5-0.8-19.7-2.1C6,10.4,4.3,9.6,3.2,8.9z M54.5,70.5c0,0.7-0.3,1.6-0.8,2.4c-0.5,0.8-1.3,1.7-2.3,2.4
		c-0.5,0.4-1,0.7-1.6,1.1l-0.3,0.2c-0.5,0.3-1,0.6-1.6,0.8c-0.9,0.4-1.9,0.8-3,1.2c-0.3,0.1-0.7,0.2-1,0.3c-0.7,0.2-1.5,0.4-2.2,0.6
		c-0.8,0.2-1.5,0.3-2.3,0.5c-1.6,0.3-3.2,0.5-4.8,0.7c-1.6,0.1-3.2,0.2-4.8,0.2c-0.8,0-1.6,0-2.4,0c-0.8,0-1.5,0-2.3-0.1
		c-1.5-0.1-3-0.3-4.3-0.5c-1.4-0.2-2.7-0.4-3.8-0.7c-1.2-0.2-2.2-0.6-3.2-0.8c-0.9-0.3-1.7-0.6-2.4-0.8c-1.3-0.6-2-0.9-2-0.9
		s0.8,0.3,2.1,0.7c0.7,0.2,1.5,0.4,2.4,0.7c1,0.2,2,0.5,3.2,0.6c1.2,0.2,2.5,0.4,3.8,0.6c1.4,0.1,2.8,0.2,4.3,0.3
		c0.7,0.1,1.5,0.1,2.3,0.1c0.8,0,1.5,0,2.3,0c1.6,0,3.2-0.1,4.7-0.3c1.6-0.1,3.2-0.3,4.7-0.6c0.8-0.2,1.5-0.3,2.3-0.5
		c0.7-0.2,1.5-0.4,2.2-0.6c0.7-0.2,1.4-0.5,2.1-0.7c0.3-0.1,0.5-0.2,0.8-0.3L46,59.8c1.4-0.4,2.7-0.8,4-1.2c0.1,0,0.2-0.1,0.2-0.1
		l-0.4,17.2c0.4-0.2,0.8-0.5,1.2-0.7c1-0.7,1.8-1.4,2.3-2.2c0.6-0.8,0.9-1.6,1-2.2c0.1-0.7,0-1.2-0.1-1.6c-0.1-0.4-0.2-0.5-0.2-0.5
		s0.1,0.2,0.2,0.5C54.3,69.3,54.5,69.8,54.5,70.5z"/>
</g>
<g>
	<path class="st0" d="M29.5,49.6c0-0.6-0.3-1.1-0.8-1.4c0.6-1.1,1.2-2.1,1.9-3.2c0.1,0.1,0.3,0.2,0.4,0.3c1.4,1,2.1,2.3,2.3,4
		c0,0.4,0,0.4-0.4,0.4c-1,0-2,0-3,0C29.7,49.6,29.6,49.6,29.5,49.6z"/>
	<path class="st0" d="M27.1,48.2c-0.5,0.3-0.8,0.8-0.8,1.4c-1.2,0-2.5,0-3.7,0c-0.2-1.5,1.1-3.8,2.6-4.6
		C25.9,46,26.5,47.1,27.1,48.2z"/>
	<path class="st0" d="M25.2,54.1c0.6-1.1,1.2-2.1,1.8-3.2c0.3,0.1,0.6,0.2,0.8,0.2c0.3,0,0.5-0.1,0.8-0.2c0.6,1,1.2,2.1,1.8,3.2
		C29,55.1,26.9,55.2,25.2,54.1z"/>
	<path class="st0" d="M27.9,48.5c0.6,0,1.1,0.5,1.1,1.1c0,0.6-0.5,1.1-1.1,1.1c-0.6,0-1.1-0.5-1.1-1.1C26.8,49,27.3,48.5,27.9,48.5z
		"/>
</g>
</svg>
