<?xml version="1.0" encoding="utf-8"?>
<!-- Generator: Adobe Illustrator 25.2.1, SVG Export Plug-In . SVG Version: 6.00 Build 0)  -->
<svg version="1.1" id="Calque_1" xmlns="http://www.w3.org/2000/svg" xmlns:xlink="http://www.w3.org/1999/xlink" x="0px" y="0px"
	 viewBox="0 0 90 75" style="enable-background:new 0 0 90 75;" xml:space="preserve">
<style type="text/css">
	.st0{fill-rule:evenodd;clip-rule:evenodd;}
</style>
<desc>Created with Sketch.</desc>
<g>
	<path class="st0" d="M64.2,39.9l-11.5,0l5.7-5.3c0.8-0.7,0.8-1.9,0.1-2.7c-0.7-0.8-1.9-0.8-2.6-0.1l-5.8,5.4c0,0,0,0-0.1,0.1
		c-1.1,1.1-1.4,2.7-0.8,4.1c0.6,1.4,1.9,2.3,3.4,2.3h11.5c1,0,1.9-0.8,1.9-1.9S65.3,39.9,64.2,39.9 M40.5,37.2l-5.8-5.4
		c-0.8-0.7-1.9-0.7-2.6,0.1c-0.7,0.8-0.7,1.9,0.1,2.7l5.7,5.3H26.4c-1,0-1.9,0.8-1.9,1.9s0.8,1.9,1.9,1.9h11.5
		c1.5,0,2.9-0.9,3.4-2.3C41.9,39.9,41.6,38.3,40.5,37.2C40.5,37.2,40.5,37.2,40.5,37.2 M73,71.2H51.5c2.5-1.9,4-4.9,4-8.3
		c0-5.8-4.7-10.5-10.4-10.5c-5.7,0-10.4,4.7-10.4,10.5c0,3.4,1.6,6.4,4,8.3H17c-7.3,0-13.3-5.7-13.3-12.7c0-5.6,3.8-10.5,9.4-12.1
		c0.5-0.2,1-0.6,1.2-1.1c0.2-0.5,0.2-1.1-0.1-1.6c-1-1.8-1.5-3.8-1.5-5.9c0-7,6-12.7,13.3-12.7c0,0,0,0,0,0c1,0,1.8-0.8,1.9-1.8
		c0.1-3.3,1.5-6.4,3.9-8.8c2.5-2.4,5.8-3.7,9.3-3.7c0,0,0,0,0,0c1.1,0,9.6,0,15-5.7c1.7,3.2,4.2,9.6,1.3,16.4
		c-0.3,0.6-0.2,1.3,0.2,1.9c0.4,0.5,1,0.8,1.7,0.8c0.5-0.1,1-0.1,1.5-0.1c7.3,0,13.3,5.7,13.3,12.7c0,2.2-0.6,4.4-1.8,6.3
		c-0.3,0.6-0.4,1.3-0.1,1.8c0.3,0.6,0.9,1,1.5,1c7,0.4,12.4,6,12.4,12.7C86.3,65.6,80.3,71.2,73,71.2 M45.1,69.7
		c-3.7,0-6.7-3-6.7-6.7c0-3.7,3-6.7,6.7-6.7c3.7,0,6.7,3,6.7,6.7C51.8,66.7,48.8,69.7,45.1,69.7 M76.8,42.5c0.7-1.9,1.1-3.8,1.1-5.8
		c0-8.8-7.1-15.9-16.1-16.4c2.8-10.4-3.7-19.2-4-19.6C57.4,0.3,56.9,0,56.3,0c-0.6,0-1.2,0.3-1.5,0.9c-4.1,6.4-13.2,6.3-13.5,6.2h0
		c0,0-0.1,0-0.1,0c-4.5,0-8.7,1.7-11.9,4.7c-2.8,2.6-4.5,6-5,9.7c-8.6,0.8-15.3,7.9-15.3,16.4c0,2,0.4,3.9,1.1,5.7
		c-2.6,1.1-4.9,2.9-6.6,5.1C1.2,51.5,0,55,0,58.6C0,67.6,7.6,75,17,75H73c9.4,0,17-7.4,17-16.4C90,50.8,84.4,44.2,76.8,42.5"/>
</g>
</svg>
