<?xml version="1.0" encoding="utf-8"?>
<!-- Generator: Adobe Illustrator 25.2.1, SVG Export Plug-In . SVG Version: 6.00 Build 0)  -->
<svg version="1.1" id="Calque_1" xmlns:sketch="http://www.bohemiancoding.com/sketch/ns"
	 xmlns="http://www.w3.org/2000/svg" xmlns:xlink="http://www.w3.org/1999/xlink" x="0px" y="0px" viewBox="0 0 30.6 83.1"
	 style="enable-background:new 0 0 30.6 83.1;" xml:space="preserve">
<style type="text/css">
	.st0{fill-rule:evenodd;clip-rule:evenodd;}
</style>
<desc>Created with Sketch.</desc>
<g sketch:type="MSPage">
	<path sketch:type="MSShapeGroup" class="st0" d="M15.3,5.4c-0.8,0-1.4-0.6-1.4-1.4c0-0.8,0.6-1.4,1.4-1.4s1.4,0.6,1.4,1.4
		C16.7,4.8,16.1,5.4,15.3,5.4L15.3,5.4z M18.5,6.3C19,5.6,19.3,4.9,19.3,4c0-2.2-1.8-4-4-4c-2.2,0-4,1.8-4,4c0,0.9,0.3,1.6,0.8,2.3
		C9.5,7.5,7.6,10,7.4,13.2h15.8C23.1,10.1,21.2,7.5,18.5,6.3L18.5,6.3z M21.7,22.2l1.3-7.7H7.5l1.5,7.7H21.7z M14.6,40.3H16v30.3
		h-1.4V40.3z M7.4,32.9v42.2l7.9,7.9l7.9-7.9V32.9h7.4v-2.6H20.3l1.2-6.7H9.3l1.3,6.7H0v2.6H7.4z"/>
</g>
</svg>
