<?xml version="1.0" encoding="utf-8"?>
<!-- Generator: Adobe Illustrator 25.2.1, SVG Export Plug-In . SVG Version: 6.00 Build 0)  -->
<svg version="1.1" xmlns="http://www.w3.org/2000/svg" xmlns:xlink="http://www.w3.org/1999/xlink" x="0px" y="0px"
	 viewBox="0 0 19.7 110.5" style="enable-background:new 0 0 19.7 110.5;" xml:space="preserve">
<g id="Calque_2">
</g>
<g id="Calque_1">
	<path d="M15.1,16.7h-1.9V6.5l3.9,0c2,0,3.5-1.3,3.5-3.2S19.1,0,17.1,0L3.5,0C1.6,0,0,1.3,0,3.2c0,2,1.6,3.2,3.5,3.2h3.2v10.2
		l-1.2,0c-2.6,0-5.3,2-5.3,4.6v53c0,2.6,2.7,4.6,5.3,4.6l1.9,0l2.6,31.6l2.6-31.6h2.5c2.6,0,4.6-2,4.6-4.6l0-53
		C19.7,18.7,17.7,16.7,15.1,16.7z M3.5,4.6c-0.9,0-1.7-0.5-1.7-1.4c0-0.9,0.8-1.4,1.7-1.4l13.6,0c0.9,0,1.7,0.5,1.7,1.4
		c0,0.9-0.8,1.4-1.7,1.4L3.5,4.6z M5,19.5l10.1,0c1.1,0,1.9,0.9,1.9,1.9l0,38H3V49.2h2.6c0.6,0,1.1-0.8,1.1-1.4
		c0-0.6-0.5-1.4-1.1-1.4H3V34.4h2.6c0.6,0,1.1-0.8,1.1-1.4c0-0.6-0.5-1.4-1.1-1.4H3l0-10.1C3,20.4,3.9,19.5,5,19.5z"/>
</g>
</svg>
