<?xml version="1.0" encoding="utf-8"?>
<!-- Generator: Adobe Illustrator 25.2.1, SVG Export Plug-In . SVG Version: 6.00 Build 0)  -->
<svg version="1.1" id="Calque_1" xmlns="http://www.w3.org/2000/svg" xmlns:xlink="http://www.w3.org/1999/xlink" x="0px" y="0px"
	 viewBox="0 0 99.7 82.4" style="enable-background:new 0 0 99.7 82.4;" xml:space="preserve">
<path d="M48.1,59.6c-0.3-0.4-2.6-3.6,1.9,0.9c2.8,2.7,6.1,1.6,8.2,0.2c1.6-1,2.9-3.6,3.7-4.7c0.3-0.3-0.2,1.3-0.7,2.3
	C58,64.8,51.1,63.8,48.1,59.6z"/>
<path d="M29.7,37.4c-0.3,0.8-0.2,1.6,0.2,2.3c0.6,0.9,0.1,0.8-0.2,0.9c-0.2,0.1-0.4,0.5-0.5,0.5c-0.9,0-0.9-0.3-0.9-1.4
	c-0.1-0.7-0.1-1.5,0-2.2c0.1-1.1,0.5-2.5,0.7-1.9C29.3,36.3,29.7,37.4,29.7,37.4z"/>
<path d="M25.5,33.3c-0.8-0.6-1.5-1-1.5-0.3c0,1,0.1,1.9,0.5,2.8c0.4,0.7,0.8,1.4,1.1,2.1c0.1,0.5,0.4-0.2,0-1.4
	c-0.3-0.6-0.5-1.3-0.6-1.9C24.9,34.2,25.1,33.6,25.5,33.3z"/>
<path d="M69.1,34.4c0.7,0.9,0.7,1.5,0.2,2.2s-0.2,1,0.5,0.8s0.1-0.7,0.7-1.6c0.2-0.3-0.2-1.5-0.8-2.2c-0.2-0.3-0.6-0.6-1-0.8
	L69.1,34.4z"/>
<path d="M58.9,48.3c-0.3-0.1-0.6-0.2-0.8-0.4c-0.5-0.8-0.9-1.7-1.1-2.6c-0.3-0.9-0.5-2-0.9-2.9c-0.3-0.6-0.6-1-0.9-1
	c-0.3,0-0.5,0.4-0.9,1c-0.2,0-0.4-0.1-0.5-0.2c-0.1-0.3-0.4-0.4-0.7-0.3c-0.5,0.2-0.9,1.3-1,2c-0.1,1.6-0.6,3.1-1.4,4.5
	c0,0-0.1,0.1-0.1,0.1c-0.2,0.2-0.2,0.3-0.4,0.4C50,49.1,50.5,49,50.6,49h0c0.1,0,0.1,0,0.2,0.1c0.2,0.3,0.4,1.2,0.7,1.9
	c0.3,0.9,0.7,1.8,1.2,2.7c0.5,0.8,1.4,1.2,2.4,1.1c0.1,0,0.2,0,0.2,0c0.8-0.1,1.4-0.7,1.6-1.5c0.6-2.2,1.1-3.9,1.8-4.7
	C58.8,48.5,59.1,48.4,58.9,48.3z M52.5,44.1c0.1-0.8,0.4-1.6,0.7-1.7c0,0,0,0,0,0c0,0,0.1,0,0.2,0.2c0.1,0.3,0.4,0.5,0.8,0.5
	c0.2,0,0.3-0.1,0.4-0.3c0.2-0.5,0.4-0.7,0.5-0.7c0.2,0,0.4,0.3,0.6,0.7c0.4,0.9,0.7,1.9,1,2.7c0.3,1,0.7,1.9,1.3,2.7
	c-0.1-0.1-0.3-0.1-0.4-0.2c0,0,0,0,0,0c-0.7-0.8-1.2-1.8-1.5-2.8c0-0.1-0.1-0.2-0.1-0.3c-0.1-0.3-0.2-0.6-0.3-0.9
	c-0.1-0.2-0.2-0.4-0.4-0.6c-0.1-0.1-0.2-0.2-0.3-0.2c0,0,0,0,0,0c-0.1,0-0.2,0-0.2,0c-0.1,0-0.2,0.1-0.2,0.2c0,0.1-0.1,0.1-0.1,0.2
	c-0.1,0.2-0.2,0.4-0.3,0.4c-0.1,0-0.1,0-0.2,0c-0.1,0-0.2,0-0.3-0.1h0c-0.4,0-0.7,0.6-0.7,0.7c-0.2,0.5-0.4,1-0.4,1.6
	c0,0.3-0.1,0.6-0.2,0.9c-0.2,0.6-0.5,1.1-1,1.5c-0.1,0-0.2,0.1-0.3,0.2C51.5,48.3,52.1,46.7,52.5,44.1z M54.4,45.2
	c-0.1,0-0.1,0-0.1-0.1c-0.1-0.2-0.1-0.4-0.2-0.6c0,0.2,0,0.4,0.1,0.6c0,0.1,0,0.1-0.1,0.1c-0.4,0.1-0.8,0.2-1.1,0.2
	c0-0.3,0.1-0.5,0.2-0.7c0,0,0,0,0,0c0,0,0.2-0.4,0.5-0.5l0,0c0.1,0,0.1,0,0.2,0c0.1,0,0.1,0,0.2,0c0,0,0.1,0,0.1,0
	c0.3-0.1,0.4-0.3,0.5-0.6c0-0.1,0.1-0.1,0.1-0.2c0,0,0,0,0,0c0,0,0,0,0.1,0c0.2,0.2,0.3,0.4,0.4,0.6c0,0.1,0,0.1,0.1,0.2l0,0.1
	l0.1,0.3C55.1,44.9,54.8,45.1,54.4,45.2z M55.3,51.8C55.2,51.9,55,52,54.9,52c-0.1,0-0.1,0-0.2,0c0-0.1,0-0.3,0-0.5
	c0-0.1,0-0.2,0-0.3c0.1,0,0.5,0.1,0.5,0.1C55.3,51.4,55.3,51.7,55.3,51.8L55.3,51.8z M54.6,52.1c-0.1,0-0.1,0-0.2,0
	c-0.1,0-0.2,0-0.4-0.1c0-0.1,0-0.2,0-0.3c0-0.1,0-0.2,0-0.5l0.4-0.1C54.6,51.6,54.6,51.9,54.6,52.1z M54.1,51.7c0,0.1,0,0.2,0,0.3
	c-0.1,0-0.1,0-0.2,0c-0.1-0.1-0.2-0.1-0.3-0.2c0-0.1,0.1-0.2,0.1-0.2c0.1,0,0.3,0,0.4,0C54.1,51.6,54.1,51.7,54.1,51.7L54.1,51.7z
	 M55.4,51.7c0-0.1,0-0.1,0-0.2c0.1,0,0.2,0,0.3,0c-0.1,0.1-0.1,0.1-0.2,0.2l0,0c0,0-0.1,0.1-0.1,0.1c0,0,0,0-0.1,0
	C55.4,51.8,55.4,51.7,55.4,51.7L55.4,51.7z M56.5,53c-0.1,0.7-0.6,1.2-1.3,1.3c-0.9,0.1-1.7-0.2-2.2-0.9c-0.4-0.8-0.8-1.7-1.1-2.5
	C51.5,50,51.2,49.5,51,49c0.1,0,0.2,0.1,0.2,0.1c0,0,0.8,1,1.2,1.7c0,0,0.1,0.1,0.1,0.1c0.1,0.2,0.3,0.4,0.4,0.7c0,0,0,0.1,0.1,0.1
	c0.3,0.4,0.6,0.7,1.1,0.8c0.5,0.1,1.1,0,1.6-0.2c0.5-0.4,0.9-1,1.2-1.5c0.2-0.3,0.4-0.6,0.5-1c0.2-0.4,0.5-0.7,0.8-0.9
	C57.3,50.2,56.8,51.5,56.5,53L56.5,53z"/>
<path d="M51.7,57.5c0.8-0.7,1.8-1.2,2.8-1.4c1.3-0.3,2.6-0.3,3.9,0.1c0.4,0.1,0.7,0.3,0.9,0.4c0.2,0.1,0.2,0.2,0,0.1
	c-0.2-0.1-0.6-0.1-1-0.2c-0.9-0.1-1.9-0.1-2.8,0.1c-1,0.1-1.9,0.4-2.9,0.7c-0.4,0.1-0.7,0.3-0.9,0.4C51.6,57.7,51.6,57.5,51.7,57.5z
	"/>
<path d="M42.7,56.1c0.3,0.6-1-0.5-1.9-1.8c-0.4-0.6-0.9-1.1-1.4-1.6c-0.4-0.5-0.9-1-1.3-1.5c-1.1-1.5-2-3.3-2.4-5.1
	c0,0,0.3-2.7,0.7-0.2c0.4,1.8,1.2,3.4,2.3,4.9c0.4,0.5,0.8,1,1.2,1.5c0.5,0.5,1,1.1,1.4,1.7C41.9,54.6,42.3,55.3,42.7,56.1z"/>
<path d="M59.5,39.6c-0.7-1.3-1.5-2.6-2.4-3.9l0,0c-0.2-0.5-0.5-0.9-0.9-1.5c-0.2-0.4-2.3-4.6-1.2-7.6c0.4-1-0.3-0.3-0.7,1.1
	c-0.8,2.7,1.3,6.5,1.4,6.7l0.1,0.1c0.3,0.8,0.4,1.7,0.4,2.5c-0.1,0.5,0.3,0.1,0.3-0.1c0.1-0.4,0.1-0.8,0.1-1.2
	c0.2,0.3,0.4,0.9,0.5,1.2c0.3,0.6,0.9,2.7-0.3,3c0,0-0.1-0.7-0.4-0.7s-0.4,0.4-0.6,0.6c-0.7,0.6-1.7,0.7-2.6,0.5
	c-0.2-0.1-0.4-0.1-0.5-0.3c-0.1-0.3-0.3-0.5-0.6-0.7c-0.4-0.2-0.6,0.3-0.6,0.4c0.1,0.2,0.2,0.4,0.3,0.6c-0.4,0.4-1.1,0.4-1.5,0
	c0,0,0,0,0,0c-0.2-0.3-0.3-0.6-0.3-1c0.1-1,0.5-1.9,1-2.8c0,0.5,0.2,0.9,0.4,1.3c0.1,0.2,0.6,0.5,0.3-0.1c-0.2-0.4-0.4-0.9-0.4-1.4
	c0-0.1,0-0.7-0.1-0.7c-0.3,0.3-0.6,0.7-0.8,1c-0.2,0.3-0.4,0.7-0.5,1c-0.6,1.1-1.1,2.3-1.4,3.6c-0.5,1.8-0.5,3.7,0,5.5
	c0-2.5,0.4-5,1.1-7.4c-0.1,1.7,1.3,1.7,1.5,1.7c0.4-0.1,0.7-0.3,1-0.5c0.1-0.1,0.2-0.2,0.4-0.3c0.7,0.8,1.8,1,2.8,0.5
	c0.3-0.1,0.5-0.3,0.8-0.5c0.1-0.2,0.2,0.2,0.6,0.2c2.6,0,1.6-2.5,1.1-3.3l0-0.1c0,0,0,0.1,0,0.1c1.3,2.5,3.1,6.1,3,9.2
	C60.7,47.8,61.6,43.4,59.5,39.6z"/>
<path d="M46.7,32.3c-1.6,1.3-3.6,1.7-5.6,1.2c-1-0.3-2.8-1.5-1.5-0.4c3,2.4,6.4,1.1,8.5-1.8C48.3,30.9,47.4,31.6,46.7,32.3z"/>
<path d="M58.1,30.5c1.2,0.3,2.8-0.1,5-1.6c0.7-0.4,1.5-0.8,0.4,0.1c-2.8,2.1-4.4,2.7-6.9,1.4C56.3,30.3,57.1,30.3,58.1,30.5z"/>
<path d="M39,31.1c0,0-0.1,0-0.3,0c-0.3-0.2-1-0.6-1.1-0.6c-0.3-0.2-0.8-0.4-1.2-0.6l-0.6-0.3c-0.2-0.1-0.4-0.2-0.5-0.3
	c-0.1,0-0.1-0.1-0.2-0.1c-0.1,0-0.1-0.1-0.2-0.1c-0.1-0.1-0.1-0.1-0.1-0.1s0,0.1,0.1,0.2c0,0.1,0.1,0.1,0.1,0.2
	c0,0.1,0.1,0.1,0.2,0.2c0.1,0.2,0.3,0.3,0.5,0.4c0.2,0.1,0.4,0.3,0.6,0.4c0.4,0.2,0.8,0.3,1.2,0.4c0.1,0,0.8,0.2,1.2,0.3
	c-0.2,0-0.5,0-0.7,0c-0.4-0.1-0.8-0.1-1.2,0c-0.4,0-0.8,0.1-1.2,0.3c-0.2,0.1-0.3,0.2-0.5,0.3c0.2,0,0.4,0,0.6,0c0.4,0,0.8,0,1.2,0
	c0.4,0,0.8-0.1,1.1-0.2C38.1,31.4,39,31.1,39,31.1z"/>
<path d="M38.8,31.4c-0.4,0.8-1.2,1.5-2,1.9c-0.2,0-0.6,0.1-0.6,0c0.1-0.1,0.9-0.6,1.2-0.7C37.8,32.1,38.3,31.7,38.8,31.4z"/>
<path d="M66.1,27.4c-0.4-0.1-0.7-0.1-1.1,0c0.3-0.1,0.6-0.3,0.9-0.4c0.2-0.1,0.3-0.3,0.5-0.4c0.1-0.1,0.3-0.3,0.3-0.4
	c0-0.1,0.1-0.1,0.1-0.2c0-0.1,0-0.1,0.1-0.2c0-0.1,0-0.2,0-0.2s0,0-0.1,0.1c0,0-0.1,0.1-0.1,0.1c0,0-0.1,0.1-0.2,0.1
	c-0.1,0.1-0.7,0.5-0.9,0.6c-0.3,0.2-0.7,0.4-0.9,0.6c-0.1,0.1-0.7,0.5-0.7,0.5l0,0c0.7,0.2,1.4,0.3,2.1,0.4c0.4,0,0.9-0.1,1.3-0.1
	C66.9,27.6,66.5,27.5,66.1,27.4z"/>
<path d="M64.3,27.8c0.3,0.5,0.7,0.9,1.2,1.2c0.2,0.1,0.5,0.2,0.8,0.3c0.2,0,0.5,0.1,0.5,0c-0.1-0.1-0.9-0.6-1.2-0.7
	C65.2,28.3,64.8,28,64.3,27.8z"/>
<path d="M48.8,27.9c-0.2-0.4,0.4,0,0.8,0.6c0.7,1,0.6,3.4,0.1,3.5C49.8,30.5,49.4,29.1,48.8,27.9z"/>
<path d="M47.1,30.1c-0.7-0.1-1.4-0.3-2.1-0.6c-1.9-0.7-3-1.3-5,0.8c0,0,0,0.1,0.1,0.1c0.5-0.2,1.1-0.4,1.6-0.4c0,0.1,0,0.1-0.1,0.2
	c0,0,0,0.1,0,0.1c0,0.4,0.2,0.8,0.6,1c-0.3,0-0.7,0-1-0.1c-0.2,0-0.6,0-0.5,0.1c0.5,0.2,1.1,0.3,1.6,0.3c0.8,0,1.7-0.2,2.4-0.6
	c0.6-0.3,1.5-0.7,1.8-0.8c0,0,0.1,0,0.1,0c0.1,0,0.3,0,0.4,0C47.1,30.3,47.2,30.1,47.1,30.1z M42.9,30.8c-0.2,0-0.3-0.2-0.3-0.3
	c0-0.2,0.2-0.3,0.3-0.3c0.2,0,0.3,0.1,0.3,0.3C43.2,30.6,43.1,30.8,42.9,30.8L42.9,30.8z M43.9,31c0.1-0.2,0.2-0.4,0.2-0.6
	c0-0.2,0-0.3-0.1-0.4c0.8,0.1,1.8,0.2,2.2,0.3c-0.5,0.1-1,0.2-1.5,0.4"/>
<path d="M63,27c0.1,0,0.1-0.1,0.1-0.1c-2-0.8-3.5-0.8-5.1,0.6c-0.5,0.6-1,1-1.7,1.3c0,0,0,0.1,0,0.1c0,0,0,0,0.1,0
	c0.2-0.1,0.4-0.1,0.6-0.2c0,0,0,0,0,0l-0.1,0c0.4,0,0.8,0.1,1.2,0.2c0.4,0.1,0.7,0.2,1.1,0.2c0.3,0,0.7,0,1,0c0.2,0,0.3-0.1,0.5-0.2
	c0.4-0.2,0.7-0.4,1-0.7c0.2-0.2-0.1-0.1-0.3-0.1c0,0-0.3,0.1-0.4,0.2C61,28.2,61,28,61,27.9c0-0.3-0.1-0.6-0.3-0.8
	C61.4,26.9,62.2,26.9,63,27z M57.5,28.4c0.2-0.1,0.9-0.5,1.1-0.7c0,0.1,0,0.1,0,0.2c0,0.3,0.1,0.6,0.4,0.9
	C58.6,28.6,57.9,28.4,57.5,28.4z M60.1,28c0,0.2-0.1,0.3-0.3,0.3c-0.2,0-0.3-0.1-0.3-0.3c0-0.2,0.1-0.3,0.3-0.3c0,0,0,0,0,0
	C59.9,27.6,60.1,27.8,60.1,28L60.1,28z"/>
<path d="M56.6,28.1c-0.6,0.6-0.4,0,0-0.3c0.6-0.7,1.2-1.4,1.9-2c0.5-0.4,1.1-0.8,1.7-1c1.3-0.5,2.7,0.1,3.2,1.4c0,0,0,0,0,0
	c0.6,1.1,0.3,1.5,0.1,1.1c-0.2-0.4-0.2-0.7-0.4-1c-0.7-1.3-2.5-2.1-4.3-0.3C58.1,26.7,57,27.8,56.6,28.1z"/>
<path d="M39.2,30.9c-0.2,0.5-0.4,0.9-0.4,0.3c0.2-1,0.6-2,1.2-2.9c0.1-0.2,0.8-1.2,1.8-1c2,0.4,4,1.2,5.7,2.3c0.3,0.3-0.2,0.2-0.6,0
	c-1.6-0.8-3.3-1.5-5-1.9c-0.6-0.1-1.1,0.2-1.4,0.7C40,29.2,39.6,30.1,39.2,30.9z"/>
<path d="M48.1,23.1c-0.2-0.8-0.2,0.1-0.3,0.7c0,0.7-0.1,1.3-0.3,2c0.1-0.2,0.1-0.3,0.1-0.5c0-0.6-0.7-1-2.1-1.1
	c-0.3,0-0.6-0.1-0.9-0.1c-1.8-0.3-3.1-0.4-3.5-0.2c-0.5,0.4-1.2,0.6-1.8,0.7c-0.6,0-1.2,0.3-1.6,0.7c-0.3,0.2-0.6,0.5-0.8,0.9
	c-0.1,0.2-0.3,0.4-0.4,0.6c-0.5,0.5-0.9,1.2-0.9,2c0,0.3,0.1,0.6,0.3,0.8c0.5,0.3,1.1,0.2,1.5-0.2c0.1,0.1,0.1,0.2,0.2,0.3l0.2-0.2
	c-0.1-0.1-0.2-0.2-0.2-0.3c0.1-0.2,0.2-0.3,0.4-0.5c0-0.1,0.1-0.2,0.1-0.2c0,0,0.1,0,0.1,0c0.1,0,0.2,0,0.2-0.1c0-0.1,0-0.2-0.1-0.2
	c0,0,0,0-0.1-0.1c0,0,0-0.1,0.1-0.1c0.1-0.1,0.1-0.2,0.2-0.3c0.1,0,0.2,0.1,0.4,0.1c0.1,0,0.1,0,0.2-0.1c0-0.1,0-0.1,0-0.2l-0.1-0.1
	c0.1,0,0.2-0.1,0.4-0.1c0.1,0,0.3-0.1,0.4-0.1c0,0,0.1,0,0.1,0c0.1,0,0.1,0.1,0.2,0.1c0.1,0,0.2,0,0.2,0c0,0,0-0.1,0-0.1
	c0.3-0.1,0.6-0.1,0.8-0.2c0,0,0.1,0.1,0.1,0.1c0.1,0,0.2,0,0.2,0c0,0,0-0.1,0-0.1c0.4-0.1,0.8-0.1,1.2-0.1c0.1,0,0.2,0.1,0.3,0.1
	c0.1,0,0.1,0,0.2,0c0,0,0-0.1,0-0.1c0.2,0,0.4,0,0.7,0.1c0.8,0.1,1.6,0.4,2.4,0.8c0.1,0,0.3,0.1,0.3,0c0,0,0,0,0-0.1
	c0,0,0.1,0,0.1,0c0.1-0.1,0.2-0.2,0.3-0.3l0,0l0,0.1l0.3-0.2l0-0.1c0-0.1-0.1-0.1-0.1-0.2C48,25.7,48.3,24.4,48.1,23.1z M45.5,24.5
	c1.2,0.1,1.8,0.4,1.8,0.8c0,0.4-0.2,0.7-0.4,1c-0.5-0.8-1.1-1.4-1.8-1.9C45.2,24.4,45.4,24.5,45.5,24.5z M37.7,28.4
	c-0.1,0.1-0.2,0.3-0.3,0.4c-0.2-0.3-0.3-0.5-0.5-0.8c0.3,0.1,0.6,0.2,0.8,0.3C37.7,28.2,37.7,28.3,37.7,28.4z M38,27.7L38,27.7
	c-0.1-0.1-0.2-0.2-0.2-0.3c0.1,0,0.2,0.1,0.4,0.1C38.1,27.6,38.1,27.6,38,27.7z M39.3,26.9c-0.2,0-0.4,0.1-0.7,0.2l-0.6-0.5
	C38.5,26.7,39,26.7,39.3,26.9L39.3,26.9z M40.2,26.6c0,0-0.1,0-0.1,0c-0.3-0.3-0.7-0.7-1-0.9c0.6,0.2,1.1,0.4,1.7,0.8
	C40.6,26.5,40.4,26.6,40.2,26.6L40.2,26.6z M41.2,26.4c0,0-0.1-0.1-0.1-0.1c-0.2-0.1-0.3-0.3-0.5-0.5c-0.2-0.2-0.4-0.4-0.6-0.5
	c0.7,0.1,1.4,0.4,1.9,0.8c0.1,0,0.1,0.1,0.2,0.1C41.8,26.3,41.5,26.3,41.2,26.4L41.2,26.4z M42.1,25.9c-0.7-0.6-1.7-0.9-2.6-0.8
	c-0.1,0-0.1,0.1-0.1,0.1c0,0.1,0,0.1,0.1,0.2c0.1,0.1,0.2,0.2,0.4,0.3c-0.4-0.2-0.8-0.3-1.2-0.3c-0.1,0-0.1,0.1-0.1,0.1
	c0,0.1,0,0.1,0.1,0.2c0.4,0.3,0.8,0.6,1.2,1c-0.6-0.2-1.3-0.3-2-0.3c-0.1,0-0.1,0-0.2,0.1c0,0.1,0,0.1,0,0.2l0.8,0.7
	c-0.2-0.1-0.5-0.2-0.7-0.3c-0.1,0-0.1,0-0.2,0c0,0-0.1,0.1-0.1,0.2c0.1,0.2,0.1,0.4,0.3,0.6c-0.3-0.1-0.6-0.2-0.9-0.2
	c-0.1,0-0.1,0-0.2,0.1c0,0-0.1,0.1,0,0.2c0.2,0.5,0.4,0.9,0.7,1.3c-0.1,0.1-0.3,0.2-0.5,0.3c0,0,0,0-0.1,0c0,0-0.1,0-0.1,0
	c0,0-0.1,0-0.1,0c-0.1,0-0.1,0-0.2-0.1c-0.1-0.1-0.2-0.3-0.2-0.5c0-0.7,0.3-1.3,0.8-1.7c0.2-0.2,0.3-0.4,0.5-0.7
	c0.2-0.3,0.4-0.6,0.7-0.8c0.4-0.4,0.9-0.6,1.4-0.6c0.6-0.1,1.1-0.3,1.6-0.5c0.1,0.3,0.5,0.8,1.3,1.5l0,0L42.1,25.9z M44,26.3
	c-0.3-0.1-0.7-0.1-1-0.1c-0.1-0.1-0.3-0.3-0.5-0.5c-0.3-0.3-0.9-0.9-1.1-1.2C42.4,24.8,43.4,25.4,44,26.3L44,26.3
	C44,26.3,44,26.3,44,26.3L44,26.3z M44.3,26.4c0.1,0,0.1-0.1,0.1-0.2c-0.1-0.3-0.3-0.6-0.5-0.9c-0.1-0.2-0.3-0.4-0.4-0.6
	c0.4,0.3,0.7,0.6,0.9,1c0.2,0.3,0.5,0.6,0.7,0.9C44.8,26.5,44.6,26.4,44.3,26.4L44.3,26.4z M44.6,25.5c-0.5-0.7-1-1.3-1.6-1.2
	c-0.1,0-0.1,0-0.1,0.1c0,0,0,0.1,0,0.1c0.1,0.2,0.2,0.4,0.4,0.6c-0.6-0.5-1.3-0.8-2.1-0.9c0,0,0.1,0,0.1,0c1.1-0.1,2.2,0,3.3,0.2
	l0.1,0c0,0-0.1,0-0.1,0.1c0,0.1,0,0.1,0.1,0.2c0.3,0.4,0.5,0.8,0.6,1.3c0.1,0.2,0.1,0.3,0.1,0.4C45.1,26,44.8,25.8,44.6,25.5
	L44.6,25.5z M46.5,27.1c-0.2-0.1-0.4-0.2-0.7-0.3c0,0,0-0.1,0-0.1c-0.1-0.3-0.3-0.6-0.3-0.9c-0.1-0.3-0.2-0.6-0.4-1
	c0.6,0.5,1.2,1.1,1.6,1.8C46.7,26.8,46.6,26.9,46.5,27.1L46.5,27.1z"/>
<path d="M64.8,22.4c0-0.1-0.1-0.2-0.2-0.3c0,0-0.1,0-0.1,0c-0.2-0.2-0.5-0.4-0.7-0.6c0,0,0-0.1,0-0.1c0-0.1-0.1-0.1-0.1-0.1
	c-0.1,0-0.1,0-0.2,0c0,0,0,0,0,0.1c-0.1,0-0.2,0-0.4,0l0,0c0-0.1,0-0.1,0-0.2c0,0-0.1-0.1-0.2-0.1c-0.3,0-0.5,0.1-0.7,0.3
	c-0.2,0-0.4,0-0.6,0c0,0-0.1,0-0.1,0l0-0.2c0-0.1,0-0.1-0.1-0.2c-0.1,0-0.1,0-0.2,0c-0.1,0.1-0.2,0.2-0.3,0.3c-0.6,0-1.1,0-1.7,0.1
	c-0.5,0.1-1,0.1-1.4,0.2c-1-0.1-2,0.3-2.7,1l0,0c-0.3,0.4-0.4,0.9-0.4,1.3c-0.4-0.7-0.7-1.5-0.8-2.3c0-0.4-0.4-1-0.4-0.2
	c0,1.3,0.5,2.5,1.4,3.3l0,0c0.2,0.5,0.7,0.7,1.2,0.5c0,0,0,0,0,0c0.9-0.3,2.5-0.8,3.7-1.2c0.9-0.3,1.8-0.4,2.7-0.3l0.1,0
	c0.4,0.1,0.7,0.3,0.9,0.6l-0.1,0.3l0.3,0.1l0.1-0.1c0.1,0.2,0.3,0.4,0.4,0.6c0.2,0.3,0.4,0.5,0.6,0.8c0.1,0.1,0.2,0.2,0.4,0.2
	c0,0,0.1,0,0.1,0c0.3-0.1,0.3-0.6,0.2-1.4c0-0.1,0-0.2,0-0.3c0-0.1,0-0.3,0-0.4C65.6,23.8,65.7,23.4,64.8,22.4z M63.9,22
	c0.1,0.1,0.2,0.1,0.3,0.2c0,0-0.1,0.1-0.1,0.1l-0.3,0.3C63.8,22.4,63.9,22.2,63.9,22L63.9,22z M62.9,21.8c0.1,0,0.1,0,0.2,0
	c-0.1,0.1-0.2,0.2-0.3,0.4L62.9,21.8z M61.4,21.8c0,0,0.1,0,0.1,0c0.1,0,0.2,0,0.2,0c-0.1,0.1-0.2,0.2-0.3,0.3
	c-0.1,0.1-0.1,0.2-0.2,0.3L61.4,21.8z M59.3,21.9c0.4-0.1,0.9-0.1,1.3-0.1c-0.1,0.2-0.3,0.3-0.4,0.5c0-0.1,0-0.2-0.1-0.3
	c-0.2-0.3-0.6-0.1-0.9,0.1c-0.3,0.2-0.5,0.4-0.7,0.7c0-0.2,0-0.5,0-0.7c0,0,0-0.1-0.1-0.1C58.7,21.9,59,21.9,59.3,21.9z M55.4,22.9
	c0.6-0.7,0.8-0.9,2.3-0.9c0.2,0,0.3,0,0.4,0c-0.5,0.4-0.9,0.9-1.3,1.5l0,0c0-0.3,0-0.5,0-0.8c0-0.1,0-0.2-0.1-0.2
	c-0.1,0-0.2,0-0.2,0c-0.5,0.6-1,1.2-1.5,1.9C55.1,23.8,55.2,23.3,55.4,22.9z M57.8,24.4c-0.6,0.2-1.2,0.4-1.7,0.6
	c-0.2,0-0.5,0-0.7-0.1l0,0c0,0-0.1-0.1-0.1-0.1c0,0,0,0,0-0.1c0.4-0.6,0.8-1.2,1.3-1.7c0,0.1,0,0.3,0,0.4c0,0.2,0,0.5,0,0.7
	c0,0.1-0.1,0.2-0.1,0.3c0,0.1,0,0.2,0.1,0.2c0.1,0,0.2,0,0.2-0.1c0.1-0.1,0.1-0.2,0.1-0.3c0.3-0.7,0.7-1.3,1.3-1.8
	c0,0.4,0,0.7-0.1,1.1C58,23.8,57.9,24.1,57.8,24.4C57.8,24.4,57.8,24.4,57.8,24.4z M60.8,23.6c-0.4,0.1-0.8,0.1-1.2,0.3
	c-0.4,0.1-0.9,0.3-1.4,0.4c0.1-0.2,0.1-0.4,0.2-0.6c0.2-0.5,0.6-1,1-1.3c0.1-0.1,0.3-0.2,0.4-0.1c0,0,0,0.1,0,0.2
	c0,0.2,0,0.4-0.1,0.6c-0.1,0.2-0.1,0.3-0.2,0.5c0,0.1,0,0.2,0.1,0.2c0.1,0,0.2,0,0.2-0.1c0.1-0.2,0.1-0.3,0.2-0.5
	c0.2-0.5,0.5-1,0.9-1.3l0,0L60.8,23.6C60.8,23.6,60.8,23.6,60.8,23.6L60.8,23.6z M61.6,23.5c-0.1,0-0.3,0-0.4,0
	c0.1-0.4,0.4-0.8,0.6-1.2c0.1-0.2,0.3-0.3,0.5-0.5c0.1,0,0.2,0,0.3,0L62,23.5C61.8,23.5,61.7,23.5,61.6,23.5L61.6,23.5z M63.7,24.2
	c-0.2-0.3-0.6-0.6-1-0.6c0,0-0.1,0-0.3,0c0.3-0.6,0.7-1.1,1.1-1.6c0,0.6-0.2,1.1-0.5,1.5c0,0.1,0,0.2,0.1,0.2c0.1,0,0.2,0,0.2,0
	l1-1.1c0,0,0,0,0.1-0.1c0,0,0,0,0.1,0.1c0,0,0,0,0,0c0,0.1,0,0.2-0.1,0.3L63.7,24.2z M65.2,24.2c0,0.1,0,0.3,0,0.4
	c0,0.1,0,0.2,0,0.3c0,0.3,0,0.6,0,0.9c0,0,0,0,0,0.1c-0.1,0-0.1-0.1-0.1-0.1c-0.2-0.2-0.4-0.5-0.5-0.7c-0.2-0.2-0.3-0.5-0.5-0.7
	l0.7-1.5c0,0,0-0.1,0-0.1C65.1,23.2,65.3,23.7,65.2,24.2L65.2,24.2z"/>
<path d="M38.4,21.1c1.2,1.2,7.4,2.5,8.1,2.5c0.2,0,0.3-0.2-0.5-0.5c-1.7-0.6-4.2-0.9-6.9-1.9C38.9,21.1,38.7,21.1,38.4,21.1z"/>
<path d="M63,18.9c-1.2,1.2-6.8,2.2-7.5,2.3c-0.3,0.1-0.3-0.2,0.4-0.5c1.5-0.6,4-0.8,6.2-1.6C62.4,18.9,62.7,18.9,63,18.9z"/>
<path d="M99.7,82.4c-0.3-2.2-0.9-5.8-1-6.2c-0.8-3.1-4.5-6.7-11.4-10c-4.6-2.3-17.1-6-21.5-9.4c0.2-0.5,0.5-1.1,0.6-1.6
	c0.5-1.4,1.1-3.4,1.7-5.7c0.5-0.2,0.9-0.5,1.2-0.8c0.1-0.1,0.1-0.3,0.2-0.8c0-0.1,0-0.2,0-0.3l0,0c0.3,0.2,0.6,0.5,0.9,0.3
	c0.2-0.1,0.4-0.3,0.6-0.5c0.2-0.2,0.5-0.5,0.7-0.6c0.1-0.1,0.2-0.2,0.2-0.4c-0.2-1.1-0.4-2.2-0.5-3.3c-0.1-0.7-0.2-1.4-0.2-2
	c0.3-0.5,0.5-1,0.6-1.6c0.4-1.9,0.3-3.8-0.2-5.6c-0.1-0.6-0.3-1.4-0.4-2.1c0.5-0.2,1-0.5,1.6-0.8c0.1,0,0.1-0.1,0.2-0.2
	c0-0.1,0-0.2,0-0.3c-0.4-0.6-3-8.7-1.9-12.7c0,0,0,0,0.1,0c0.8-0.4,1.4-1.1,1.8-1.9l0,0c0.2-0.4,0.5-0.8,0.8-1.2
	c0.1-0.1,0.2-0.1,0.3-0.1c1.2-0.4,1.3-2.1,1.3-2.5c0.1-0.5-0.3-0.9-0.7-1c-1.4-0.3-3-0.7-4.1-1.1c-0.9-0.3-1.7-0.9-2.3-1.7
	c-0.1-0.2-0.2-0.3-0.4-0.5c-1.3-1.4-2.8-2.5-4.5-3.3c-0.9-0.5-2-1.3-3.2-2c-2.5-1.3-5.3-2.1-8.2-2.3c-4.1-0.4-14.5,0.7-21.4,5.7
	c-1.1,0.8-3.7,2.9-4,3.1c-1,1.1-1.9,2.2-2.8,3.3c-0.4,0.7-0.7,1.5-0.9,2.3c0,0-0.2,1.1-0.3,1.4c-0.1,0.7-0.2,1.3-0.2,1.7
	c0,0,0,0.1,0,0.1c0,0,0,0.1,0,0.2L21.8,18c-0.4,0.2,0,0.8,0.3,0.6l0,0c0,0.5,0,1.2,0,2.1c-0.1,0.1-0.3,0.5-0.4,0.6
	c-0.2,0.2,0,0.5,0.4,0.6c0,0.7,0,1-0.1,1.7c-0.3,0.2-0.5,0.4-0.7,0.7c-0.1,0.2,0.2,0.4,0.5,0.5c-0.1,1.2-0.3,2.4-0.6,3.6
	c-0.1,0.1-0.2,0.1-0.4,0.2c-0.4,0.1-0.1,0.3,0.3,0.4c-0.1,0.6-0.3,1.2-0.6,1.7c-0.1,0.1-0.1,0.3,0,0.4c0.5,0.6,1.2,1,2,1.1
	c-0.3,0.7-0.3,1.5-0.1,2.2c0.5,2.5,1.2,5,2.2,7.4c0.4,1.4,1.2,2.6,2.4,3.5c0.2,0.1,0.4,0.2,0.6,0.3c0.2,0.7,0.9,3.6,1.7,6.1
	c0,0.1,0.2,0.2,0.3,0.2c0,0,0,0,0,0c0.1,0,0.4,0.3,0.6,0.4c0.3,0.3,0.6,0.6,0.8,0.5c0.1,0,0.2-0.1,0.3-0.3c0.1-0.1,0.1-0.3,0.1-0.4
	c0.1,0.1,0.2,0.2,0.3,0.3c0.2,0.2,0.4,0.3,0.6,0.5c0.4,0.2,0.9,0.3,1.3,0.4c0,0,0,0,0,0c0.6,1,1.3,2.1,2,3
	c-3.9,2.6-24.5,9.3-25.2,9.6C-1.8,71.5,0.1,82.2,0.1,82.3l36.3,0.1c0-5.2,0.1-10.3,0.1-14.6c0.5,2.4,1.1,4.7,1.9,7
	c0.4,1.4,1.3,1.3,1.9,0.4c1.3-1.8,3.7-3.2,6.5-5c0.7,1,2,2.5,2,2.5s-0.6,4.2-1.3,9.7h8.8c-0.4-5.6-0.8-9.9-0.8-9.9c1-1,2-2,2.8-3.1
	c1.9,1.5,3.7,3.2,5.1,5.1c0.4,0.6,0.9,0.3,1,0.1c0.4-1.4,0.7-2.8,0.9-4.3c0,3.8-0.1,7.9-0.3,12.1L99.7,82.4z M69.3,44.9
	c-0.2,0.6-0.3,1.2-0.4,1.8c-0.2,0.1-0.2,0.4-0.3,0.9c0,0.1,0,0.3,0,0.4c-0.1,0.1-0.3,0.3-0.4,0.4c0.5-2.3,0.8-4.6,1-6.9
	c0.1,0,0.1,0,0.2,0C69.6,42.7,69.6,43.8,69.3,44.9z M70,47C70,47,70,47,70,47c-0.2-0.2-0.4-0.3-0.5-0.4c0.1-0.6,0.2-1.2,0.4-1.8
	c0.2-1.1,0.2-2.2,0-3.2c0.1,0,0.2,0,0.2,0C70.6,43.4,70.1,45.2,70,47L70,47z M70.5,46.7c0.1-1,0.3-2,0.3-3c0.1,0.9,0.2,1.7,0.3,2.4
	C70.9,46.3,70.7,46.5,70.5,46.7L70.5,46.7z M70.6,41.5L70.6,41.5L70.6,41.5C70.6,41.5,70.6,41.5,70.6,41.5L70.6,41.5z M72.2,30.2
	c-1.6,1.1-2.9,1.5-3.6,1.2c-0.3-0.1-0.6-0.3-0.7-0.6c0.5-0.6,0.6-0.9,0.6-2.6c0,0,0-0.1,0-0.2c0,0,0-0.3-0.1-0.7c0,0,0,0,0,0.1
	c0.3,0.5,0.5,1,0.8,1.4c0.5,0.9,1.6,1.4,2.6,1.3C72,30.3,72.1,30.2,72.2,30.2C72.2,30.2,72.2,30.2,72.2,30.2L72.2,30.2z M71.3,27.8
	c0.3,0.8,0.5,1.6,0.8,2.1c-0.1,0-0.2,0-0.3,0C70.7,30,70,29,69.6,28.3c-0.2-0.7-0.7-1.2-1.3-1.6c0,0,0,0-0.1,0
	c-0.1-0.7-0.3-1.4-0.5-2.2l0,0c0.3,0.2,0.6,0.5,0.8,0.9c0.3,0.4,0.6,0.8,0.9,1.1c0.4,0.5,1,0.9,1.7,1.1
	C71.3,27.7,71.3,27.8,71.3,27.8L71.3,27.8z M71.1,27.1c-0.3-0.2-0.6-0.5-0.9-0.9c-0.3-0.4-0.6-0.8-0.9-1.2c-0.4-0.5-1-0.9-1.6-1
	c-0.2-0.9-0.4-1.8-0.8-2.6c0.7,0.4,1.2,1.6,1.6,2.1c0.5,0.6,1.2,1.1,1.9,1.3c0,0.2,0.1,0.3,0.1,0.5C70.6,25.3,70.9,26.3,71.1,27.1
	L71.1,27.1z M70.1,21.8c-0.6-0.5-1-1.5-1.5-2.1c-0.6-0.6-1.5-1-2.4-0.9c-0.1-0.3-0.1-0.5-0.1-0.8c0.2,0,0.3,0,0.5,0
	c1.1,0,2.2-0.1,3.3-0.3c0,0,0.2,0,0.5-0.1C70,19.1,70,20.4,70.1,21.8L70.1,21.8z M70,22.4c0,0,0.1,0,0.1,0c0.1,0.6,0.1,1.2,0.2,1.9
	c-0.8-0.3-1.4-1.5-1.9-2.1c-0.4-0.7-1-1.1-1.8-1.3c-0.1-0.5-0.3-1.1-0.5-1.7C68.2,19.3,68.4,21.8,70,22.4L70,22.4z M67.2,8.3
	c1,1.3,2.4,2.2,4,2.6c-3.8-0.6-8.1-3.7-10.4-6.7C61.5,4.6,66.2,6.6,67.2,8.3z M58.9,3.2c2.9,4.5,8.7,9.4,14.3,8.5
	c1.2-0.2,1,0.9,0.4,1.6c-5.2-0.8-10.5-2.3-13.9-6.4c-1.5-1.9-2.9-3.8-4.9-5.2C56.3,2,57.7,2.5,58.9,3.2z M52.9,1.3
	c4.1,2.1,5.7,6.9,9.7,9.2c3.1,1.8,6.5,3.1,10,3.7c-0.4,0.4-0.6,0.5-0.8,0.7c-3.6-0.1-8.3-1.9-11.5-3.5c-3.8-1.9-5.5-4.9-8.4-7.6
	c-1.4-1.3-3.2-2.2-5.1-2.6C48.9,1.1,50.9,1.1,52.9,1.3z M44.8,1.5c2.5,0.1,4.9,1.2,6.6,3.1c1,1.1,1.7,2.3,2.7,3.4
	c1.6,1.6,3.4,3,5.4,4c3.5,1.8,7.6,3.8,11.6,4.2c-0.1,0.2-0.9,0.4-1.7,0.6c-0.1,0-8.8-1.6-12.6-3.4c-3.8-1.8-6.1-4.8-9.2-7.5
	c-2-1.8-4.5-3-7.1-3.4C42,2.1,43.4,1.8,44.8,1.5L44.8,1.5z M38.1,3.3c7.3-1.5,11.7,7,17.5,10c3.4,1.8,7,3,10.8,3.7
	c-1.4,0-3.2,0-3.4,0c-4.7-0.3-9.1-2-12.9-4.7c-2.2-1.5-4.5-3.2-6.8-4.5c-2.8-1.7-5.9-2.6-9.2-2.7C35.4,4.4,36.7,3.8,38.1,3.3z
	 M32.9,5.7c7.8-0.6,12.5,5.6,18.6,9.1c2.5,1.5,5.3,2.4,8.1,2.9c-1.4,0.4-2.9,0.6-4.4,0.6C49,17,39.7,7.2,29.5,7.6
	C30.7,6.9,31.8,6.3,32.9,5.7L32.9,5.7z M28.5,8.5c9.9-0.7,19.8,8.7,23.5,9.6c-2.3-0.2-4.6-0.8-6.7-1.7c-2.8-1.7-5.7-3.2-8.7-4.4
	c-3.3-1.3-6.9-1.7-10.4-1.2C26.8,10,27.7,9.1,28.5,8.5L28.5,8.5z M25.3,11.7c6.5-1,15.3,2.8,17.5,4.8c-0.4,0.3-0.8,0.6-1.3,0.7
	c-3.4-0.5-6.1-2.6-9.6-3.4c-2.6-0.6-5.2-0.6-7.8,0.1C24.5,13.2,24.9,12.4,25.3,11.7L25.3,11.7z M23.2,16.7c0,0,0.5-1.8,0.6-2.1
	c6.1-1.3,11.5,1.8,16.1,3.5c-0.8,0.5-1.6,0.8-2.5,0.9c-1.1-0.1-2.1-0.4-3.1-0.7c-1.1-0.4-7-2.8-10.6-1.1C23,17.5,23,17.3,23.2,16.7
	L23.2,16.7z M36.5,19.7L36.5,19.7L36.5,19.7L36.5,19.7z M29.1,26.4c-1.6-0.5-3.3-0.5-4.9,0.1c-0.6,0.3-1.2,0.6-1.7,1.1
	c0,0-0.1,0.1-0.1,0.1c0.2-1.4,0.3-2.8,0.3-2.9c0.1,0,0.1-0.1,0.2-0.1c1.1-1.5,3.6-0.3,5.1-0.2c0.4,0,0.9,0,1.3-0.1
	c-0.1,0.5-0.2,1-0.1,1.5C29.1,25.9,29.1,26.1,29.1,26.4z M25.7,23.4c-0.6-0.1-1.2-0.2-1.7-0.2c-0.4,0-0.9,0-1.3,0.1
	c0-0.5,0-0.9,0-1.5c0.1,0,0.2-0.1,0.2-0.1c1.2-1.1,2.9-1.5,4.5-1.2c0.8,0.3,1.6,0.6,2.5,0.9c1.7,0.4,3.4,0.5,5.2,0.2
	c-0.2,0.2-0.5,0.5-0.7,0.6c-1.1,0.6-2.4,1-3.7,1.1c-0.1,0-0.3,0.1-0.4,0.1C28.8,23.7,27.2,23.7,25.7,23.4z M27.3,19.6
	c-1.5-0.3-3.2,0-4.5,0.8c0-1.1,0-1.9,0-2.1c4.7-3,11.5,1.3,13.4,1.8c-0.2,0.3-0.2,0.4-0.5,0.7c-0.1,0-0.1,0-0.2,0
	C32,21.6,30.4,20.3,27.3,19.6z M21.4,30.9c0.3-0.6,0.6-1.2,0.7-1.8c0.6-0.3,1.2-0.7,1.7-1.2c1.5-1.2,3.5-1.6,5.3-1c0,0,0,0,0.1,0
	c0.1,0.6,0.1,1.3,0.2,1.8c-1.2-0.3-2.5-0.2-3.7,0.2c-0.4,0.2-0.8,0.5-1.1,0.8c-0.9,0.6-1.8,1-2.8,1.3C21.6,31.1,21.5,31,21.4,30.9z
	 M22.6,31.5c1-0.3,1.9-0.7,2.7-1.2c1.3-0.8,1.9-1.5,3.8-0.9c0.1,0,0.2,0,0.3,0c0,0.2,0,0.3,0,0.4l0,0.2c0.1,1,0.3,3-0.1,3.3
	c-0.1,0.1-0.7-0.1-1.5-0.6c-0.8-0.8-1.8-1.3-2.9-1.4c-0.6-0.1-1.1,0-1.6,0.3c0,0,0,0,0,0C23,31.6,22.8,31.6,22.6,31.5L22.6,31.5z
	 M29.9,51.5c-0.6-2.1-1.3-4.4-1.5-5.4c0.1,0,0.2,0.1,0.3,0.1c0.8,1.8,0.9,4,1.8,5.8C30.3,51.7,30.1,51.6,29.9,51.5z M31.3,51.5
	C31.3,51.5,31.3,51.5,31.3,51.5c-0.1,0-0.2,0-0.2,0.1C31,51.6,31,51.8,31,52c-1-1.8-1-4.1-1.9-6c0.1,0,0.3-0.1,0.4-0.1
	c0,0,0,0,0.1,0c0.8,1.8,1,3.9,2,5.6C31.5,51.5,31.4,51.5,31.3,51.5L31.3,51.5z M32.9,52.6c-1.9-1.8-1.8-4.6-2.9-6.8
	c0.2-0.1,0.4-0.1,0.6-0.3l0,0l0.1,0.4c0.3,1.5,0.9,2.9,1.5,4.3c0.4,0.9,0.8,1.7,1.2,2.6C33.3,52.8,33.1,52.7,32.9,52.6L32.9,52.6z
	 M46.8,68.5c-2.7,1.7-5.8,3.8-7.4,5.8c-0.8-2.6-2-8-2.8-11.9c0-2.4,0-4.2-0.1-5.3c0.2,0.2,0.4,0.4,0.6,0.6
	c3.2,4.7,10.9,8.2,12.9,8.3C49.8,66.1,47.4,68.1,46.8,68.5L46.8,68.5z M63.9,73.6c-1.7-1.9-3.6-3.8-5.6-5.5c-0.7-0.8-1.6-1.4-2.5-2
	c4-1.1,7.4-3.9,9.3-7.6C65.7,62,64.6,70.4,63.9,73.6L63.9,73.6z M65,56.9c-0.5,0.9-1.1,1.8-1.7,2.6c-1.5,2-3.5,3.6-5.7,4.8
	c-1,0.4-1.9,0.8-3,1c-2.6,0.3-6.4-0.2-11-2.8c-1.6-1.1-3.1-2.3-4.5-3.7c-3.7-4-7.3-10.5-7.7-14.1c0-0.1-0.5-2-0.5-2.3
	c0,0.7,0,1.5-0.1,2.2c-0.2,0.5-0.8,0.6-1.2,0.7c-0.7,0.1-1.5,0-2.1-0.5c-1-0.8-1.7-1.9-2.1-3.2c-0.9-2.4-1.6-4.8-2.1-7.3
	c-0.2-0.7-0.1-1.5,0.2-2.1c0.4-0.3,0.9-0.5,1.4-0.4c1,0.1,4,2.1,4.4,2.1c0.1,0,0.3,0,0.4-0.1c0.8-0.4,0.7-1.6,0.6-2.4
	c0-0.8-0.2-4.1-0.2-5c0-0.7,0.2-2.2,0.9-2.3c1.3-0.2,2.4-0.1,3.5-0.8c1.1-1,2.2-2.2,3.2-3.4c0,0,0.2-0.2,0,0c0.5,0,0.9-0.1,1.3-0.2
	c0.8-0.3,1.6-0.6,2.3-1.1c0.9-0.6,1.9-1.1,2.9-1.2c1.1,0,2.1,0.3,3.1,0.8c2.4,0.8,4.9,1.2,7.4,1.2c3.4-0.3,6.7-0.9,10-1.6
	c0.1,0,0.1,0,0.2,0c0.2,0,0.4,0.1,0.5,0.1c0,0.3,0.1,0.6,0.2,0.9c-0.1,0.1-0.1,0.2,0.1,0.3c0.1,0.6,0.4,1.3,0.7,2.3
	c0.9,3.1,2.3,7.8,1,9.1c-0.1,0.1-0.1,0.3-0.1,0.4c0.2,0.5,0.7,1,1.2,1.2c0.3,0.1,0.5,0.1,0.8,0.1c0.4,0,0.9-0.1,1.2-0.3
	c0,0,0.3,1.4,0.4,1.9c0.5,1.7,0.6,3.6,0.2,5.3c-0.1,0.6-0.3,1.1-0.7,1.6c-0.2,0.2-0.5,0.3-0.8,0.3c-0.2,0-0.3-0.1-0.4-0.2
	c-0.1-0.1-0.3-3.4-0.5-2.8c0,0.1-0.2,2.9-0.2,3c-0.1,5.5-2.2,11-2.8,14C65.6,55.6,65.4,56.3,65,56.9L65,56.9z"/>
</svg>
