<svg version="1" xmlns="http://www.w3.org/2000/svg" width="2444" height="2444" viewBox="0 0 1833.000000 1833.000000"><path d="M878.9 25.4c-.2.2-6.9.7-14.9 1.1-8 .3-16.3.8-18.5 1-2.2.2-7.1.6-11 1-6.4.5-10 .9-19.5 1.9-1.9.2-6.4.7-10 1.1-3.6.4-7.2.8-8 1-.8.2-4.4.6-8 1-3.6.3-7.2.8-8 1-.8.2-3.5.7-6 1-3.7.5-14.5 2.3-29.9 5-4.8.8-13.8 2.7-25.2 5.1-6.3 1.3-12.4 2.6-13.5 2.8-27.8 5.6-82 22-120.3 36.3-40.1 15-92.6 39.3-126.1 58.5-2.5 1.4-7.9 4.5-12 6.8-53.3 30.5-113.6 74.8-160.5 117.9-11 10.1-50 49.5-59.1 59.6C135.9 430.3 70.8 547.1 33.1 678c-3.8 13.3-12.9 49.9-14.5 58.5-.2 1.1-1.8 9.2-3.5 18-1.6 8.8-3.3 18-3.6 20.5-.3 2.5-.8 5.2-1 6-.3.8-.7 3.2-1 5.4-.8 6.9-2 15.8-3 22.6-.2 1.4-1.1 9.9-2 19-.8 9.1-1.7 18.5-2 21-2.6 25.6-2.7 108.7 0 134 .2 1.9.6 7.5 1 12.4.3 5 .8 9.2.9 9.5.2.3.7 4.3 1 8.7.4 4.5.9 9.3 1.1 10.5.2 1.3.9 6 1.5 10.4s1.3 9.1 1.5 10.5c.2 1.4.7 4.5 1 7 1.8 14.7 9.1 50.4 16.1 78.5 10.9 43.6 30.5 101 46.1 134.5 1.4 3 3.4 7.7 4.4 10.4 2 5 23.9 49 27.9 56.1 1.2 2.2 4.5 8 7.2 12.9 19.7 35.4 54.6 87.3 77.9 116.1 3 3.7 26.7 32 29.4 35 8.3 9.6 29.5 32.3 38.1 40.9 9 9 28 27 35.4 33.6 5.2 4.7 9.7 8.7 10 9 .6.6 12.6 10.8 15.5 13.1 1.1 1 4.9 4.1 8.5 7.1 67.3 56.2 159 110 243.5 143 9.9 3.8 18.9 7.4 20 7.8 4.6 2 28 10 41.5 14.3 62.7 19.7 125.5 32.6 191.3 39.1 3.1.3 8.1.8 11 1.1 6.4.7 15 1.3 33.2 2.2 27.1 1.5 106.6.7 118.6-1.1 1.3-.3 6.5-.7 11.4-1 8-.6 12.5-1 30.5-3.1 46.8-5.4 99-15.9 146-29.2 81.8-23.2 161-58.1 234-103.1 10.6-6.5 41.4-26.9 46-30.4 1.4-1 10.8-8 21-15.5s18.7-13.9 19-14.3c.3-.3 5.1-4.3 10.6-8.8 11.3-9 22.6-18.7 35.4-30.1 8.9-7.9 58.3-57 63.5-63.1 1.6-1.9 6.1-7.1 10-11.5 3.9-4.4 10.8-12.5 15.4-18s9.2-11.1 10.3-12.4c1.1-1.3 7.6-9.8 14.5-19 6.9-9.1 13.1-17.3 13.8-18.2 8-10.2 44-65.7 47.8-73.9.4-.8 1.8-3.3 3.1-5.5s4-7.2 6.1-11c2.1-3.9 4.1-7.5 4.5-8 3.5-4.6 25.3-50.2 35.2-73.5 27.3-64.4 48.8-139.4 58.3-204 .9-5.8 1.8-11.6 2-13 1.2-6.9 4-33 6-55.5 2.6-29.4 2.7-119.2.1-133.2-.2-1-.7-6.3-1-11.8-.4-5.5-.9-11.1-1.1-12.5-.2-1.4-.7-5-1-8-1.1-10.8-2.6-21.6-4-30.5-.8-5-1.8-11-2.1-13.5-.7-5.6-7.9-42.4-9.8-50.5-18.6-77.2-38.8-133.2-71.5-198.5-7.7-15.3-11.6-22.5-21.1-39.5-1.8-3.3-10.8-18.5-15.3-26-.6-1.1-8-12.4-16.3-25-24.8-37.6-53.2-74.5-81.9-106.1-17.7-19.5-52.7-54.4-66.5-66.4-1.4-1.2-4.1-3.6-6-5.3-7.5-6.9-23.2-19.9-37.5-31.3-97.6-77.6-212.3-135.5-332.5-167.7-14.8-4-41.5-10.5-49.5-12.1-1.6-.4-3.9-.8-5-1-2.7-.6-16.9-3.4-23-4.6-9.2-1.8-33.1-5.5-42-6.6-1.1-.1-3.8-.5-6-.7-5-.7-21.5-2.5-27.5-3.2-2.5-.2-10.3-.9-17.5-1.5-7.1-.5-15.9-1.2-19.5-1.5-7.6-.7-93.5-1.7-94.1-1.1z"/></svg>